/* XPM */
static char *_0445b6389ea467fd41ce222876d4d52jvlXRISSgATXfpyH[] = {
/* columns rows colors chars-per-pixel */
"50 50 202 2 ",
"   c #663620",
".  c #6E3D2D",
"X  c #693729",
"o  c #703B26",
"O  c #733C2B",
"+  c #763826",
"@  c #6A3F36",
"#  c #793E31",
"$  c #674023",
"%  c #6D4126",
"&  c #73412C",
"*  c #7B402E",
"=  c #6E4536",
"-  c #6D4836",
";  c #6D4639",
":  c #6C4C3A",
">  c #654131",
",  c #744433",
"<  c #7C4433",
"1  c #724A36",
"2  c #7C4B35",
"3  c #72473D",
"4  c #7C4539",
"5  c #754C3B",
"6  c #7C4C3B",
"7  c #75513E",
"8  c #7B513D",
"9  c #6C4A40",
"0  c #744D43",
"q  c #794E40",
"w  c #745243",
"e  c #7B5443",
"r  c #775946",
"t  c #7D5A47",
"y  c #775748",
"u  c #7D574B",
"i  c #7D5B4B",
"p  c #7D5D53",
"a  c #7B614C",
"s  c #7E6254",
"d  c #814734",
"f  c #814A35",
"g  c #81463A",
"h  c #844C3B",
"j  c #8F4D3E",
"k  c #83523E",
"l  c #8A513D",
"z  c #814E41",
"x  c #8C4D42",
"c  c #944E42",
"v  c #845444",
"b  c #8B5443",
"n  c #845945",
"m  c #8C5B45",
"M  c #82564B",
"N  c #8B5649",
"B  c #845B4B",
"V  c #8B5C4C",
"C  c #935343",
"Z  c #995747",
"A  c #925B45",
"S  c #925649",
"D  c #9A574B",
"F  c #935C4B",
"G  c #9B5C4C",
"H  c #855E52",
"J  c #8C5E52",
"K  c #935E51",
"L  c #9B5E51",
"P  c #A05A4E",
"I  c #85614E",
"U  c #8B634E",
"Y  c #8F6A4F",
"T  c #94634E",
"R  c #9A614E",
"E  c #846354",
"W  c #8B6454",
"Q  c #856956",
"!  c #8C6A56",
"~  c #846459",
"^  c #8B6659",
"/  c #85695B",
"(  c #8D6A5B",
")  c #936453",
"_  c #9B6453",
"`  c #946A55",
"'  c #9B6A55",
"]  c #93675A",
"[  c #9B6458",
"{  c #946C5B",
"}  c #9B6C5B",
"|  c #8E715C",
" . c #95715D",
".. c #9C725E",
"X. c #A36354",
"o. c #A26A56",
"O. c #A4665E",
"+. c #A26C5C",
"@. c #AA6C5D",
"#. c #A96153",
"$. c #A4725D",
"%. c #AA725E",
"&. c #8D6D61",
"*. c #936D61",
"=. c #9D6E62",
"-. c #8D7263",
";. c #8E7963",
":. c #8F7468",
">. c #947363",
",. c #9B7463",
"<. c #967A66",
"1. c #9C7A65",
"2. c #947569",
"3. c #9B766A",
"4. c #957A6B",
"5. c #9C7B6B",
"6. c #977C73",
"7. c #9C7D72",
"8. c #A16F60",
"9. c #AB6D61",
"0. c #B26E63",
"q. c #A37464",
"w. c #AC7463",
"e. c #A47A65",
"r. c #AC7B65",
"t. c #A37669",
"y. c #AB7769",
"u. c #A37C6B",
"i. c #AA7C6C",
"p. c #B17663",
"a. c #B27A65",
"s. c #B4766A",
"d. c #B37D6A",
"f. c #B97464",
"g. c #A37E72",
"h. c #AA7E72",
"j. c #B27E70",
"k. c #BA7F71",
"l. c #9D816C",
"z. c #9D8273",
"x. c #9A847C",
"c. c #A4816D",
"v. c #AB816D",
"b. c #B3826C",
"n. c #BA836C",
"m. c #A38373",
"M. c #AB8372",
"N. c #A68A76",
"B. c #AC8975",
"V. c #A48479",
"C. c #AB8479",
"Z. c #A58A7A",
"A. c #AC8A7B",
"S. c #B38473",
"D. c #BC8473",
"F. c #B18A76",
"G. c #BA8A75",
"H. c #B18679",
"J. c #B48C7B",
"K. c #BA8B7A",
"L. c #AD907E",
"P. c #BC927E",
"I. c #B5927C",
"U. c #C28E7A",
"Y. c #C38778",
"T. c #C1917C",
"R. c #CA937F",
"E. c #9A8780",
"W. c #AE8E82",
"Q. c #B48D82",
"!. c #BA8E81",
"~. c #AB9383",
"^. c #A7948E",
"/. c #AA968F",
"(. c #AF998C",
"). c #B59483",
"_. c #BB9483",
"`. c #BE9A85",
"'. c #B5938A",
"]. c #BA978C",
"[. c #BD9D88",
"{. c #B49883",
"}. c #B89B91",
"|. c #BFA499",
" X c #C29582",
".X c #CC9684",
"XX c #C59A85",
"oX c #C59788",
"OX c #CC9789",
"+X c #C6998B",
"@X c #CA9E8C",
"#X c #CB9B84",
"$X c #D19D87",
"%X c #D39E8E",
"&X c #C69E92",
"*X c #D0A48B",
"=X c #C2AA9B",
"-X c #CCAF9B",
";X c #C8A594",
":X c #D3A793",
">X c #DBA897",
",X c #D0AB9B",
/* pixels */
"( m.).1.Q Q *.C.7.Z.7.&.p p &.&.6.|.~./ 4.-.| >.( >.m.N.5.Q E Q N.<.L.z.s Q E a Q m.;X).( 2.{ ` ' T ",
"1.1.c.l.C.A.2.( m.V.3.H 6.'.g.7.:.6.<.z.A.( 2. .3.>.5.N.N.N.N.l.<.m.z.<.Q l.).N.2.u.2.>.t.B. .3.q.$.",
"8 ! c. .W ! W 1.} i W t u C.h.H t 7 7  ...7 U 8 U n W  .!  . .r !  .t I t a c.M.n n 1 M t.3.5 n v b ",
"! ..1.`  .,.` } v.} { } J h.oX*...` ......` $.' ] _ i.i.W { u.W ' c. . .` ! i.I.1.t.) ......) i.N [ ",
"P.v. .V ` e.' ` XX:XT m r.' _ T T ' b.m A ' Y $.K.b.G.i.n ) e.` e.T.@X..U q.} ) T } ' $.V U T } l.N.",
"c.c.e.U U ` ' e.S.R.T T _ k l m T R %.l R A l ' d.r.d.q.F ) ` n q.b.P.T k T k h k m T r.T T T v  .l.",
"I ! 1.1.c.M...' ..` r.r.' %.n.%.n.n.b.b.b.b.U.b.T ) } q.t.h.M.q.r.' q.r.%.r.d.d.a.G.y.d.r.r.G.U.w.+.",
"w w w > - t B ` T k ' m T a.l < T m % * & 2 n.k 5 6 5 - - 5 u B U V v ) V T q.N 2 [ b v 2 . k i.F 6 ",
"2.4.2.~ E 3.W 3.t.q.] _ [ d.[ +...' ..'  ...M.! { ,.5.>./ s 2.~ W 1.q.` =._ i.[ 8.} t._ ,.` ..c.^ { ",
":.6.p p &.7.*.^ W q.J ) ) _ _ U U  .1.F.J.! >.<.3./ 2.s p &.2.5.{ } 3.V J W } ] N N q.t.P.F. .Y >.<.",
"s 6.~ &.&.^ *.*.M *.6 n v q K n n ,. .t.B.r Q >.4.~ z.s s 2.&.&.W B } 7 v M N K J J ` { u.u.| | ;.;.",
"z.W.2.6.C.A.5.} } h.) } +.q.y...W c.,.2.N.>.m.-.5.-.Z.4.Z.W.7.2.2.{ u.` q.8.q.t.) =.i.t.t.5...l.;.;.",
"H E t r B { 1 1 , 5 , 2 v F < o v n 5 ; 5 e 1.B E t B w u u H 5 2 7 2 2 N 6 N h O 6 N e 1 7 7  .s a ",
",.u.v.e.,.u.Y e.r.$._ R o.d.T T i.e.S.S.t...I.F.M.v.i.q.t.} i.] ' c...` $._ a.o.+.+.y.d.v.v.l.I.B.N.",
"..e.) ` +.v.R R G.U.%.o._ @.o.o.F ' %X>XOX..) ..T T e.' +.%.p.$.$.b.G.$.+.' %._ G R $.#X*XP.Y ` } ` ",
"k +.k m v k l U F a.C T l d l * d F G.d.r.m f %.F k %.l h l h l f T n.l l l f * l f l b.n.v.8 k ' G ",
"r.%.%.e.r.G.T.a.d.d.a.w.o.n.$Xn.r.v.$.%.%.a.n.a.%.a.%.+.%.%.R.G.n.d.d.p.p.%.w..Xn.d.d.$.q.} r.b.p.f.",
"+ & o   2 e.b._ C C h f f _ v.' 2 $ % 2 2 F o.+ d d j g f k q.a.A k j f f l G D.S b . , v 5 { ) + + ",
"o.d.r.' ..F.H.q.' w.[ F ) q.v.q.Y Y Y ' [ r.j.L _ o.S.y.y.q.S.K.d.$.w.o.) ' q.K.} K ) ` { W u.u._ ' ",
") t.,.{ ` ! E ] V i.i.} ) U W Q I [.B.I ] J J q.[ K i.=.} ] E B { V ,.q.T N N V ] J +Xh.^ ^ W ( } { ",
"u M 0 ; w y w u 3 { *.] H 0 i y a L.*.: i e 0 N M 3 J 0 0 0 0 u r 0 { 2.W J M M M M '.*.0 u 0 w v z ",
"=.C.g.>.2.V.Z.g.g.C.C.h.C.g.C.z.L.Z.4.1.g.Q.Q.*.*.&.C.g.2.>.V.W.5.4.m.A.g.h.g.C.g.C.Q.3.>.3.].C.,.=.",
"; u ^ p w s *.&.2.*.] &.E ~ >.~ Q w w s ~ 3.h.y 0 0 H H u 9 ~ ~ 4.>.<.( / ^ E >.^ ] u w ^ E C.3.0 5 ",
"C.t.3.3.*.>.7.3.3.=.=.t.W ( 5.>./ ( Q  .=.5.C.3.h.g.3.3.3.&.V.7.<.<.1.( >.{ W t.*.) J H ,.*.5.M.u.u.",
"S.!._.C.2. .l.,X&Xt.h.t.W B 1.( E _.).,.5.W t.J.t.h.+X&XC.*.3.2.-X;Xc.c.{ W ` W ` W _. XW ....c.M.t.",
"] i.J.1.W n I J.i.h.q.) B M t B F.XXJ.U { } } ) ] ] u.h.=.^ ` W N.1.B.1.` I e ) ) $. XK.....V $.) T ",
"8.i.M.u.B.B.>.,.i.G.q.] q. XB.v.......e.v.' ,.} t.=.y.!.M.M.i.>.1.,.J.`  ...v._.q.r.....r.S.U q.+.w.",
"6 ) 8.` `  .U W } V z n n v.M.B 8 8 8 $.q., U 8 M u J ,.}  .} B W  .E e n n v.i.n n 2 v ..e.8 m f N ",
") i.u.!  .,.( 1.h.} q.} 3.u.B. .1.} ,.' ] q.v.U } ` ,.3.( { ,.{ >.g.*.u.*.*.M.H.,.,.} ,.` ..! 1.Q } ",
"K.H.3.H ! <.|  ._.!.t.M i. .( >...e v.M e ,.W ,.).A.B.g.W E *./ 3.'.].3.M t.] ] } ^ ` *.r B ! ( 5.Z.",
"3.h.5.^ ~ Q Q 5.'.!.] 6 W H : y >.n m.{ E E u >.A.m.g.2.~ ^ *.^ g.'.].^ 0 ( p 0 u H ^ h.>. .~ i 4.4.",
"( ( >. .z.V.>.3.( 3.t.h.*.m.m.u.i.M.t.u.A.h._.5.^ E *.3.2.m.C.2.>.*.&.7.Q.,.C.g.t.C.u.m.5.5.m.{.t.>.",
"0 : : : : E w { I v ] V F y.k 2 ' l k 2 & 8 S.B X e 6 3 y @ J M W Y 8 U ) n e.n n I V 6 1 1 8 c.v 2 ",
"1.7.W ~ Q } ) ) } ,.' _ R d.%.%.%.o.' o.%.] i.` 5.3.,.B K ^ *.[ } ' %._ _ ' b.' ' ' $.' ..' ` v.T Y ",
"^ t.B W ) q.y.] o.w.L _ Z G G Z A %.$.b.T.} .. .2.` 5.B ^ ,.,.y._ G b.m b R G X.P X.$.q.D.S.o.$...l.",
"W t.J ] ) q.[ F b K b Z l Z Z l 2 ' ..$.S.I ! ( ! Q 1.^ ^ ( ^ ` R C %.k b Z C P j Z R o.d.S._ V ! ;.",
"B.H.B.M.i.S.} q.+.+.o.' o.d.@.%.' e.c.c.1.! N.1.5.c.N.m.m.5.A.2.q.+.w.X.0.@.w.w.o.9.s.0.s.s.} h.>.4.",
"e e n t e W 1 e 8 1 , 2 < m * O I 8 1 1 1 1 1.t a r : r a r ( : 1 2 # < c d v 6 @ 6 N h 4 4 6 3.i H ",
"1.z.5.<. .c. .{ ....Y ..$.c...Y ..1.c.F.B.1.{.m.B.1.l.1.>.>.c.W { c.t.` ,.} i.} K { u.B.J.u.2._.A.C.",
"( N.Q | { l.l.! P.[.Y  .` Y ..U I e.XX:XP.Y { } { I M.>.( ,.u.5.` I.I.! {  .,.] { ) 5.{.-X{.( ( ,.( ",
"e ! W e t e 7 M I c.U B 8 8 - 8 6 U K.M.t.n n =.V n =.e e t e 7 t W m.Q B r q , 5 e H Z.Z.5.r e ` ! ",
"e.t.,.} u. X+XK.r.S.r.q.q.S.T.G.i.} i.t.q.q.h.i.h.h.i.{ { i._.K.S.u.M.u.u.,.i.&XH.H.=.g.1.2.u.I.i.v.",
"4 O O O < o.s.F b h h g h _ D.[ z , # , n ) 8.z [ q.N N v ) H.i.` v 4 g x g N  X) N X # 4 z W { X o ",
"9.0.s.9.@.k.Y.s.@.9.9.L X.O.Y.o.n =.) ) } w.j.} y.d.8.i.} i.S.i.i.q.9.9.P +.O.K.[ K X.O.8.9.q.q.R #.",
"L 9.9._ _ _ _ _ S w.w.F L N L N ) oXh.) ) J [ +.[ [ } q.) } V K L F +.y.m _ G S D X.OXS.K K N 9.X.#.",
"h V h 4 k n 2 b 2 +.} V ] N v N W F.} e 6 N z v v 5 N v , e 5 N F g _ e.V V S x x b K.} 0 4 q x C j ",
" .c.t. ...c.v.B.3.B.c.B.c.u.u.m.m.F.i.u.i.oXS.] +.} i.y.....u.A.v.,.v.b.S.r.e.S.S.i.K.S.i.M._.h.} [ ",
": e ! a : I >.I 4. .Q >.t Q | ! { 7 e M e J.i.w ; w M E H 1 W W | 1.,.e ..` V 2.W W w 5 7 t ).>.5 5 ",
"N.l.;.-.4.l.:.z.z.( m.( ( / 3.>.W >.3.{ 1. .m.m.x.6.6.6.2.>.7.u.l.4.>.5.&.( ( 1.,.M ` 5.W >.-.m.m.2.",
"x.~.|.x.:.-.6.=X'.z.W.>.*.E >.( ( C.N.1.1. .V.Z.x.E.^.^.x.2.2.5.|.(.x.Z.>.( E *.>.W u.A.3.5.>.V.V.4."
};
