/* XPM */
static char *xpm___removebg_preview__1_1684850335[] = {
/* columns rows colors chars-per-pixel */
"50 50 238 2 ",
"   c None",
".  c #191616",
"X  c #1C1A16",
"o  c #1D1B1A",
"O  c #171515",
"+  c #221D1A",
"@  c #271C15",
"#  c #1F201E",
"$  c #24211D",
"%  c #2B231D",
"&  c #292C1E",
"*  c #32241C",
"=  c #3B261E",
"-  c #33291E",
";  c #3A2A1E",
":  c #39341D",
">  c #221E24",
",  c #252322",
"<  c #2A2622",
"1  c #2C2A23",
"2  c #29272A",
"3  c #3A2622",
"4  c #342C25",
"5  c #3C2B23",
"6  c #332C2C",
"7  c #3B2D29",
"8  c #362626",
"9  c #293728",
"0  c #35332C",
"q  c #3C332C",
"w  c #383727",
"e  c #2D2737",
"r  c #352B37",
"t  c #2C3A38",
"y  c #333434",
"u  c #343B33",
"i  c #3D3D39",
"p  c #383C37",
"a  c #1E2A34",
"s  c #482C1C",
"d  c #4A331E",
"f  c #5D3A1E",
"g  c #57351D",
"h  c #613D1E",
"j  c #432C23",
"k  c #4C2F23",
"l  c #432B26",
"z  c #433224",
"x  c #4B3324",
"c  c #44332B",
"v  c #4B352A",
"b  c #4C392D",
"n  c #493929",
"m  c #533524",
"M  c #523924",
"N  c #5B3B24",
"B  c #523529",
"V  c #543B2B",
"C  c #5B3C2B",
"Z  c #5C3625",
"A  c #4C3A33",
"S  c #4D3C3A",
"D  c #443935",
"F  c #533D33",
"G  c #5A3D33",
"H  c #523C3B",
"J  c #5C3E3E",
"K  c #623C23",
"L  c #673C27",
"P  c #683F37",
"I  c #3B443C",
"U  c #394236",
"Y  c #3D5637",
"T  c #314B31",
"R  c #64401F",
"E  c #46402D",
"W  c #55412C",
"Q  c #5C422C",
"!  c #5C462B",
"~  c #48572B",
"^  c #474337",
"/  c #544332",
"(  c #5C4433",
")  c #54433C",
"_  c #5B443B",
"`  c #594937",
"'  c #475335",
"]  c #585835",
"[  c #5C5C29",
"{  c #664326",
"}  c #6B4325",
"|  c #64432B",
" . c #6C462A",
".. c #6C492B",
"X. c #6B4929",
"o. c #7C4B23",
"O. c #744C2B",
"+. c #7A4C2C",
"@. c #734825",
"#. c #66552D",
"$. c #7A512E",
"%. c #634434",
"&. c #654B34",
"*. c #6C4C35",
"=. c #63443B",
"-. c #654B3B",
";. c #6B4C3B",
":. c #694636",
">. c #744D36",
",. c #6A5139",
"<. c #775437",
"1. c #4A6337",
"2. c #55663B",
"3. c #576E32",
"4. c #666D3C",
"5. c #362B44",
"6. c #3D3545",
"7. c #2E2743",
"8. c #4A3C46",
"9. c #483851",
"0. c #2D4647",
"q. c #3A4B48",
"w. c #3A5548",
"e. c #2E555A",
"r. c #385854",
"t. c #304E4E",
"y. c #366256",
"u. c #3A6C4A",
"i. c #2E5A6B",
"p. c #3A6968",
"a. c #3B7466",
"s. c #376879",
"d. c #387178",
"f. c #4D4C43",
"g. c #474A43",
"h. c #574644",
"j. c #475A4A",
"k. c #56554A",
"l. c #58495A",
"z. c #455B53",
"x. c #545856",
"c. c #694A42",
"v. c #6A5448",
"b. c #755448",
"n. c #6E5150",
"m. c #4C7648",
"M. c #557345",
"N. c #4B645D",
"B. c #42655B",
"V. c #576458",
"C. c #536D4C",
"Z. c #767B45",
"A. c #706E4C",
"S. c #584D66",
"D. c #5E5263",
"F. c #7B5D64",
"G. c #6B5A74",
"H. c #446C69",
"J. c #466C76",
"K. c #487479",
"L. c #53726B",
"P. c #636967",
"I. c #747570",
"U. c #86552B",
"Y. c #875C39",
"T. c #804B26",
"R. c #8C6238",
"E. c #99692F",
"W. c #835B51",
"Q. c #896B59",
"!. c #886E49",
"~. c #7B863D",
"^. c #478656",
"/. c #548954",
"(. c #709050",
"). c #488569",
"_. c #58906F",
"`. c #758377",
"'. c #699777",
"]. c #70926D",
"[. c #78A66A",
"{. c #69A572",
"}. c #7ABA7B",
"|. c #73AE73",
" X c #64A36B",
".X c #878D3C",
"XX c #969A4E",
"oX c #839444",
"OX c #96A44F",
"+X c #9FAE51",
"@X c #ABB454",
"#X c #8B976B",
"$X c #84B673",
"%X c #8CAF6E",
"&X c #ADBD69",
"*X c #8CC17C",
"=X c #B4C569",
"-X c #B7C05E",
";X c #CEE27E",
":X c #2F7891",
">X c #497A84",
",X c #437A9D",
"<X c #776687",
"1X c #7E6D93",
"2X c #87748D",
"3X c #8A759A",
"4X c #816D8E",
"5X c #937EA3",
"6X c #3D8896",
"7X c #3E8789",
"8X c #3E95AF",
"9X c #478695",
"0X c #4A8C92",
"qX c #6B8483",
"wX c #6C9C90",
"eX c #65A689",
"rX c #6FAD94",
"tX c #4896A9",
"yX c #5498AA",
"uX c #488FAE",
"iX c #5AA9BD",
"pX c #51A3AF",
"aX c #76B1AD",
"sX c #5D9F93",
"dX c #55AEC6",
"fX c #6BB9C5",
"gX c #6DBCC8",
"hX c #73CEE6",
"jX c #70C5DE",
"kX c #98A5A3",
"lX c #92C58A",
"zX c #AFD08A",
"xX c #92DBA0",
"cX c #D6EA90",
"vX c #E4F598",
"bX c #E6F4AE",
"nX c #C8DD81",
"mX c #8CCDCE",
/* pixels */
"                                                                                                    ",
"                                                                                                    ",
"                                                ,                                                   ",
"                                      XX@XXX0 w ' ^ 1 < < $ <                                       ",
"                                ^ D A.oX=XZ.9X`.+X@X4.o , + , 1 $ $                                 ",
"                              P.^ q.rXeXrXr.a.M.+X~.: , 1 $ % < , @ 1 %                             ",
"                          D 1 f.q >XjXfX6Xa.^.: w o X , 2 2 4 5 % 1 5 % $                           ",
"                        ^ w ^ A 4 q.9XK.H._.}.C.6 , S.l.2 y 0 + u V.W - $ o $                       ",
"                      f.g.) I.x.4 2 e S.kX].$X2.3 l G.4Xr 3X<X> r D j g X , # $                     ",
"                      ` D h.`.f.e 4Xl.%.+.W M.] M ..V b G F.4X5.S.9.+ 1 % , , o                     ",
"                    v.! q ' ^ 1 5.F.;.U.U.M A X.V Q X.z *.K -.Y.kX<X. > + o , $ $                   ",
"                  #XA.f.Z.+X-XA.3 .. .U.E.{ A >.V b &.z c.:.%.E.O.S 9.l.> $ - , $ $                 ",
"                !.v.yXaXA.OXOXn M X.| L <.W A | V %.F v A v.O.R.o.V b.5Xr + $ X , & %               ",
"              cX!.f.dXdX)./.1.4 M  .( >.>.A D ` ` F ` V Q h.!.U.$.B  .G 9.6.% % 4 % %               ",
"            vXvX(.' _.tXe.^.|.3.x <.C %.%.A S A ) -.D _ ;.b Q.+.<.( +.h F.5X6 x - < $               ",
"            =X%X(.$XC.0.w.m.3.T M *.P =.-./ 7 7 7 D c ) c.D v.Y.-.` U.{ Q l.6 ; % < $ $             ",
"              lX{.{.m., q B v B 7 ;.;.;.C 1 % 1 6 q.k.u ^ ) h.!.%.-.Y.@.N -.4Xc * + + $             ",
"              mX).).u.h.n.Q ( v ^ b.G F 1 , p g.i H.qXi y h.h.Q.%.=.R.@.| &.2X8.s - 4 - %           ",
"            ].mXgXK.9 ^ ` x v c F =.S 8 $ w H.qXf.N.N.t a.<Xf.Q.>.-.Y.O.| V r 6 X $ + X <           ",
"            lXaXhXK.j.|.2.; 7 S A c.H > 6 q g.L.P.g.U q.0XV.p F.>.;.R.+. .z D.G.% z + + 4           ",
"            xXrXB.r. X}.1.s D F S v.A @ 1 y y I x.U 0 I u u p v.b.;.W.+.O.k D.G.< q + . $           ",
"            eX0XI y.a. XU k ( F ) n.S % u w.H.g.D 5 4 U w.p.qXv.b.c.>.+.O.Z r e + 7 - % -           ",
"          bXlXp.0XfXa.T 5 W &.G ) b.^ + 1 T I q.U 5 0 q I r.H.v.b.c.<.+. .V l.G., 4 z - ;           ",
"          bXzXr.J.jXi.> < ( ;.C ) b.( @ < 1 I B.^ g.U q.q.^ 0 n.c.c.>.U.@.m S.4Xo $ % X X           ",
"            mX0X9XyXj.E s M ( %./ =.h.8 $ u j.z.9 N.x.q.K.P.D Q.P c.:.$.} M e 5.. < % - +           ",
"            kXfXdXwX%X&X#.z / V A b.=.S $ 1 p q t H.P.u j.f._ W.P P +.@.} s D.<Xo < z M ,           ",
"            #XyXdX].&X;XXX- x V A -.A A n @ + 0 u z.g.1 c h.b.>.L G +.@. .d G.4Xo $ 5 M @           ",
"            #Xg.g.q.] V.,.n ( N q b.=.J c.( v 4 % - & q 8.n.>.T.K Z o.o.@.d r e . . ; z +           ",
"            vXZ.i k.5.S.%.F ( C 7 n D A c.c._ / A S S H 8.:.+.+.Z Z L T.} g l.<Xo o B M +           ",
"          vXvXnX] g.x.2XA ( v / b O.C v <.>.A ;.G h.H _ H ;.@.+.g k +.T.@.f D.3Xo + ; ; +           ",
"          cXnXnX4.U [.j.5 b W O.z Q B v <.*.A =.S h.G G A :. .L K k } o.@.f 6 7.. X . + $           ",
"            %XzX2.B._.m.* 5 F V A O.Z x -.| A *.! ` 5 c 8.B  .K k s Z o.o.f 8.<X% % - ; +           ",
"            rXsXu J.6Xw.w 7 V b c n x v C | ` >.X.W o 0 l.*.} L 5 @ @ N T.L c.5X> @ - - X           ",
"      rX$X'.dXuXt q.a.m.M.- n ( q | K k L Q / | Q W % z ` &.O.C p o o * L h 8 5.o + X o .           ",
"      $X$X%XkXJ.6.J.y.u.~ 5 ( b D Q M j Z { c v W V x L V N  .%.i 2 o + f h 8 5.> . O o $           ",
"      *X%X[.I.k.N.tXd.9 $ b &.b b V s j V o.W Q Q C M K B N Z Z 6 y X @ s g D 4X6 O X @ ,           ",
"        *X#X`.C.T 2 u + 0 c Q W n z @ q v.O.! *.V b v m v K K C l D + @ s f D <X6 < E # #           ",
"        lX[.'.lXB.. # : ] A.x Q n M * 0 v.$.N ,.M n z N c { K B 7 g.O @ g h 8 e , 0 k.& #     (.    ",
"        {.'.{. XeXT [ .X-XOX- V c V Z l V } ! &.M n x C j *.{ x 7 8 . @ Z @.B 1Xy 1 - X X : /.(.    ",
"          '.'.a.a.T [ .X+X#.= C s Q } j s N ! W Q c x v z | K x 5 > < s L L H 4Xr , $ X . : 3.(.    ",
"            `.:X:XT ~ ~.~.: s d s z N = 8 } { ( X.x V ; c | Z k 3 * 3 j L @.l 5.o O $ # Y Y ~ 3.3.  ",
"        }.sXd.:X8Xw.L.p.T @ * s = W { j j L f ( X.s B s v | Z k 3 * 8 = L o.8.4X4 X 9 w.[.3.T ~ 3.  ",
"    [.%X|.yXdX8X:XH.tXi.a % s V x z L k j Z h V X.j z m v | B l 3 * 3 = Z @.8.5X6 o w.^.^.m.9 ~ 1.  ",
"    %X[.[.yXpXpXtXp.d.i.0 5 B x x v v l l k m ^ X.z 5 m v | M 3 l j q 3 m O.l 7.> . r.7Xu.T & T     ",
"      $X[.{.K.pXtX0Xe.8.S 7 j x j C | 5 3 x N ` ..x 5 m x | V l l v b = x @.h.<Xe e.6X6Xd.T a 9     ",
"          eXyXdXe.tXdXi.t.e.0 s M n | l 3 j h E #.M j C x | C l M C V x j } W.3X2 :X:Xs.7Xe.0.      ",
"            ,XuX6.i.uXs.e.:Xq.x | c V 5 8 l N n ,.B v L M <.C c C } O. .L T.c.5., J.>Xt.d.          ",
"                                                                                                    ",
"                                                                                                    ",
"                                                                                                    "
};
