/* XPM */
static char *Tileable_texture___gmd___1_1684853172[] = {
/* columns rows colors chars-per-pixel */
"50 50 84 1 ",
"  c #2F2A27",
". c #35312D",
"X c #3A3633",
"o c #3E3A36",
"O c #3F3D39",
"+ c #403C37",
"@ c #423E3A",
"# c #46423E",
"$ c #48443E",
"% c #464441",
"& c #4A4642",
"* c #4D4A45",
"= c #4F4C49",
"- c #514B46",
"; c #514E4A",
": c #55524D",
"> c #5A554E",
", c #565451",
"< c #595652",
"1 c #5C5955",
"2 c #5F5C59",
"3 c #62594F",
"4 c #625C56",
"5 c #685E53",
"6 c #625E5A",
"7 c #656057",
"8 c #65625C",
"9 c #6A645D",
"0 c #71665B",
"q c #73695E",
"w c #666461",
"e c #6A6661",
"r c #6C6A64",
"t c #6E6D6A",
"y c #736D65",
"u c #786E65",
"i c #726E69",
"p c #6F706D",
"a c #777067",
"s c #7A7067",
"d c #74726C",
"f c #7B746C",
"g c #767572",
"h c #797772",
"j c #7D7A74",
"k c #7D7D7A",
"l c #80746A",
"z c #83796F",
"x c #847D74",
"c c #887F75",
"v c #827E79",
"b c #7F807B",
"n c #858077",
"m c #8A8176",
"M c #85827C",
"N c #8A857C",
"B c #8E887E",
"V c #918779",
"C c #91887E",
"Z c #868582",
"A c #8A8781",
"S c #878986",
"D c #8C8A84",
"F c #878888",
"G c #8E8D89",
"H c #918C84",
"J c #988F85",
"K c #918E89",
"L c #8F908A",
"P c #959087",
"I c #989086",
"U c #93918C",
"Y c #99948D",
"T c #8D8E90",
"R c #8E9191",
"E c #959491",
"W c #989693",
"Q c #979897",
"! c #9A9995",
"~ c #9C9C99",
"^ c #A09F9D",
"/ c #9FA19F",
"( c #A1A19D",
") c #A4A5A3",
/* pixels */
"GKPMjj1$9ayf4e2@ @<Dh=6kUWUHJHBHBPj1mmm7dNMnUJh8gG",
"KKUPNNd;-;:488,,,2:;X%wvUJHNDHNNVVn1HLBrjPLPKA8wwt",
"fkYYULA<>9fDMkkpixhg=&MEYJHBBDBmmnbrL(~adQQKGSkhkg",
"xdD!!UL99nHJJnkhhFFT1#kKKKJBBBBmnnb9G)/hfUQUFGSZFZ",
"UGAG!EPdrNBCCHchkFZD6@1hBLBMNNNmnnb8K))gdGEGGGSFRT",
"APYYEEEdumVCCcccZGAAe&<hMGDBNmNMMnb7G^~jgGGSGGPGKT",
"DGUUEWQjyBVHHcxAAkAHr;evbnbmbabnnny$D~~ggGSMMZKUKE",
"PGGPYW!hfHcCHcxcxddf6iKW~PLBBBBVP/P1G!E8kFZFSGYQEE",
"LDGY!!WdfBmNCcccNcee8dGGEWUGGSMNDDY9D/M<kZjZUKWKTU",
"GPUU!!QbnMDDHAccccleeuhhSSMjbkbmMvk*8a4,GGvZRZKYKK",
"UPPUEQQdnBNHKHczzzxt;,4161:#%O*-&-&@$$#wRZvkZFKWJH",
"/PUYQYd$hBBNAcxzcxcZ6ivkfsit6>->3>3373>8bMjkvDGHHJ",
"LLBYb;$=tmBNmmzzzcAGwkUDNMMnja>qq0q0ur1<FFjhSSZh6x",
"790>..O#tMNDBnzxzcAA2gGDANNNMb9hlsuuusu,gkgwjbp6@*",
"+#$$1ra4gjANNnBAxZNAwkPDMADBMxrnxfuslud4SSgXX%&%4:",
"7fbfNPYd:$raydfjlldd1SUDBADNNb7blfslfsi1MEj,wwtpQA",
"ccNZDDZrX#:,rttdpt2;=AKHHGAAcxeczffzzfa<ULthMktpMD",
"KDAcADAv:iAKGZDSFNAvtTYKKDFCcc6cxjzznkd<GS9dZbpdBH",
"DcccNZNc>eMZvvNAAxxdtDUKHDAcnf<uaffsye;:jj29bktecN",
"vvzzxxxc8ZANNBAAFNxvtcACCCNxfu;9a89rddgg6>#tbbt8cc",
"vccccxccyLKKDCAAADUGivNcVBBnndsBPDDKDMSGZd;dLSp6Nc",
"GAxDKAcctGPDANNADDUJtZGccDMfx8aNMANDGGGLFM<gLFp6DK",
"AccHHKDn8MGNDnZADDDc5rgytrre8#fMMDADDNDMMZ8gFbwwAD",
"fxcAAADv8iSASZAAAAAc<9GGGUEGM8dnMGMMGNDMGStgGh=wmc",
"dvxixMx9*<dMGMSAMAxZ<>ZbjNGZbetMMBMMBLDMGGgiGi;;sj",
"hMhrthiw<>:<827466,:o*8w8redd:ebMMMBBbBMGGghGhr:1e",
"GDCAEETKkr8kAZLDAjGGgZkhMbpkb;rMbNmmbmDSGGhgGAdiKK",
"AZZAKKDDky8MGnDKUEEQQEGFUULGM:rZbMnnbMLBGGr6Nk96AR",
"SBMDADDHAh1kBcBDKKGEGGGGELUEL:ejbbbbkxMNGD,&jg+<MG",
"bMMMZAKUGG&=rfjxSKGKSFkgLEE!U&>dfdsaqhnDZw@@;;@8AK",
"bnMMDADEEE:O@#%:26tg21#*;:,2:$>717r7#8dt&&;::*;rGE",
"BmNnDvNRRG=6r8<2,OO=&18ddi966pd847*#<adfZDhAKj:9DD",
"MBSBBbBLL7,bprrrt<<pvFcGGAAvZFMAGvw>fnfD/(())U:7NA",
"LLBSBnL!Lw2bSbbgvtbFAAcADMvFDAAFAcf:jMnnP//))/22JY",
"fbbbbbba9$>9dbbpdiFDAAAACDAGHKFAAvv=hj8ra99tr8o=ei",
"+o#;:o@rbbBLSSMBd4ZAAAAAAAAACGAAAcv<:,&<<,;;,16<o%",
"r$1bb>bBLQ/)/SBLEhDDACABAAAcKHAZccvedvhxMkjvbbbhgZ",
"br7bb>bPGU~~LDMGEhZDBcVVNNcAHHNAAcviMAvNBNMDLLZbvZ",
"ba9Bn$bCPP!QUDMDDijDmccccNccHCcCAcz6vMnMNNNDUGAMvN",
"narBb#bVPE~!UGADGrhNczzcxccNAHCcvhi%:dvnNMmNKNMnnN",
"narDr#MPPUE!YDASDuhDcNCcxccchvvxjjn:hPHBBBmNKAccMD",
"na9M:&MGGPYEJNDUDgbKANDDCczyfDDNzfM8nNBNDNmNHDZcAG",
"Mrib1*8jBIPPKMDUKhhZHHKGze49ccBNmmN8bMMADNcAHCNNDD",
"b78Ma<<MJHPDDAHKKktpjjh4<6xhxxxcmxx<jMxnCBNABHvcDN",
"a78GG8yPHHHSDNBDKi:wk2<186uuzvxdyd9:hMxxcNNvNNxxnZ",
"q07h8&kHBDGGGBmBAr2R)8ZKDvccDKKGMnNtgMnnvcccvNcxch",
"u7#:#$MDBDGUUCCHGw,TQ1jAxxvNAHIIBnnehnnNNxxcDZxxxf",
"f7&9<&dKKGPUUUUUF<,GZ,hxxZHNHKUKCnMhxvNZAAZAKGMZfz",
"7*&,##:MEEEEELUGM2:RG;gMNAUKHmHHNnNieyr868<8r61:&8",
"rfd886*tPPEULLRLk#=G/16kDNBKHBBcNNN6gje&#41>;=18dk"
};
