/* XPM */
static char *_5bfb6f895b0451496581f7eb139669ezRZfjdaIqGeeMnJB[] = {
/* columns rows colors chars-per-pixel */
"50 50 226 2 ",
"   c #1A0B03",
".  c #1D140C",
"X  c #191007",
"o  c #251304",
"O  c #2B1302",
"+  c #2E1906",
"@  c #23150A",
"#  c #2B1A0A",
"$  c #341B04",
"%  c #3D1D02",
"&  c #341D0A",
"*  c #3A1E09",
"=  c #351700",
"-  c #2B1C11",
";  c #261C16",
":  c #240F00",
">  c #2E210C",
",  c #3E2106",
"<  c #34220C",
"1  c #3D220B",
"2  c #2C241D",
"3  c #2B2116",
"4  c #332313",
"5  c #3A2412",
"6  c #39291A",
"7  c #2C2926",
"8  c #342B22",
"9  c #3C2E24",
"0  c #322B27",
"q  c #3C352C",
"w  c #34332D",
"e  c #3C3934",
"r  c #343A3D",
"t  c #3B3B3C",
"y  c #373534",
"u  c #302E31",
"i  c #431E01",
"p  c #4A1D00",
"a  c #441300",
"s  c #5A1F00",
"d  c #432204",
"f  c #4D2402",
"g  c #4D2903",
"h  c #43250B",
"j  c #47280C",
"k  c #4C2B0B",
"l  c #492709",
"z  c #532501",
"x  c #5A2500",
"c  c #542903",
"v  c #5B2B03",
"b  c #542D0A",
"n  c #5A2E0A",
"m  c #512508",
"M  c #55310D",
"N  c #5C310C",
"B  c #593104",
"V  c #432913",
"C  c #4B2B12",
"Z  c #422C1A",
"A  c #492E1A",
"S  c #522D13",
"D  c #4D3013",
"F  c #47331F",
"G  c #543213",
"H  c #5A3212",
"J  c #533319",
"K  c #583A18",
"L  c #612B04",
"P  c #612702",
"I  c #613109",
"U  c #643915",
"Y  c #402E20",
"T  c #443224",
"R  c #483425",
"E  c #43342A",
"W  c #49372F",
"Q  c #4C3B2B",
"!  c #42392E",
"~  c #573C26",
"^  c #433B34",
"/  c #493E34",
"(  c #443E3A",
")  c #623A21",
"_  c #4B4135",
"`  c #45403C",
"'  c #4C4139",
"]  c #56493C",
"[  c #684A31",
"{  c #393D44",
"}  c #413F42",
"|  c #3C4246",
" . c #3A434B",
".. c #3C4C5A",
"X. c #46474A",
"o. c #554B43",
"O. c #57524C",
"+. c #5B544D",
"@. c #5F584E",
"#. c #434B52",
"$. c #4A4C54",
"%. c #434F59",
"&. c #4C535B",
"*. c #4B5258",
"=. c #5B5553",
"-. c #51555C",
";. c #5B5A5B",
":. c #56565B",
">. c #645343",
",. c #6A5645",
"<. c #6D5B4B",
"1. c #67574A",
"2. c #715C48",
"3. c #625954",
"4. c #635B5A",
"5. c #645855",
"6. c #69605B",
"7. c #4D5A63",
"8. c #4C5D6C",
"9. c #475461",
"0. c #555C64",
"q. c #5B5D63",
"w. c #535E6B",
"e. c #5A5F68",
"r. c #525761",
"t. c #615F62",
"y. c #54616C",
"u. c #5C636B",
"i. c #4F6070",
"p. c #546373",
"a. c #5B6673",
"s. c #5C6A75",
"d. c #5C6C7A",
"f. c #556B79",
"g. c #636265",
"h. c #6A6565",
"j. c #63656B",
"k. c #6D6B6D",
"l. c #69696C",
"z. c #746D6A",
"x. c #79726D",
"c. c #646C74",
"v. c #6B6D73",
"b. c #636E7A",
"n. c #6A6F79",
"m. c #716F71",
"M. c #6D7176",
"N. c #64717C",
"B. c #6B737C",
"V. c #6F797F",
"C. c #747375",
"Z. c #797577",
"A. c #73757A",
"S. c #75797D",
"D. c #7C7B7B",
"F. c #7A7778",
"G. c #5C6D81",
"H. c #657482",
"J. c #6B7582",
"K. c #6C7984",
"L. c #6D7C8A",
"P. c #697988",
"I. c #717781",
"U. c #737B84",
"Y. c #7B7E84",
"T. c #727E8A",
"R. c #797F8B",
"E. c #6B798B",
"W. c #74818C",
"Q. c #7C848D",
"!. c #7B8086",
"~. c #738492",
"^. c #7A8996",
"/. c #8B898C",
"(. c #838588",
"). c #838D95",
"_. c #89939B",
"`. c #9B9899",
"'. c #8C97A3",
"]. c #929DA4",
"[. c #9EA4B0",
"{. c #A4A7AA",
"}. c #B1B1AF",
"|. c #A2ABB3",
" X c #A9B1BA",
".X c #B3B4B4",
"XX c #BAB9B9",
"oX c #B2AEAF",
"OX c #C1BCB9",
"+X c #C8C0BE",
"@X c #B9BEC2",
"#X c #BDC4C9",
"$X c #C6C8C9",
"%X c #C8CCD1",
"&X c #D7D8DA",
"*X c #CED2D5",
"=X c #D5DBE0",
"-X c #DDE3E7",
";X c #EEECE4",
":X c #E2E6E9",
">X c #E4EAED",
",X c #ECEDED",
"<X c #E5E2E3",
"1X c #F3EEEC",
"2X c #F9EEEB",
"3X c #F3EAE6",
"4X c #F4F2ED",
"5X c #FBF4ED",
"6X c #F8F1E7",
"7X c #E5EBF1",
"8X c #EBEEF2",
"9X c #F1EFF1",
"0X c #EDF2F5",
"qX c #EFF4FA",
"wX c #F5F6F5",
"eX c #FAF5F3",
"rX c #FEFBF5",
"tX c #F6F6F9",
"yX c #F2F6FE",
"uX c #F4F6F9",
"iX c #F5FAFC",
"pX c #FAFEFF",
"aX c #FEFEFF",
"sX c #FCFDFC",
"dX c #F5F7F5",
"fX c #EEF0EF",
/* pixels */
"eXeXeXdXdX4XdXdX5XwXdXeXrXeXeXeXeX3X2XeXwX0XuXqXiXqXuXdXeX6X5X5X4XrX5X6XeXsXsX9XtXyXyXyXdXwXdXdXdXdX",
"eX5X5XwXdXdXdXdXpXdXwXeXwX6X2XeX3XsXsXsXpXpXpXyXyXpXpXpXpXsXeX5XrXdX4XrXsX5X4XpXtXyXyXyXdXwX5XeXdXeX",
"eXeXeX5X4XdXdXdXfXwXuX1XwXtXsXtXsXqX=X%X|._.'._.^.].].].@X&X,XpXdXdXiX4XeXeXtXtXyXtXyXuXwXdXdX5XwXwX",
"eXwXwXwXdX4XdXdXiXsXuX0XwXsXsX0X#X).j.c.N.W.N.N.W.N.H.f.8.&.n._.7XpXsX4XdXpXrX9XtXtXyXtXwXdXdXdXwXdX",
"dXdXdXdXdXdXdXeXwX,XuXpXpX=X[.^.9.8.^.W.N.W.N.W.V.s.W.~.8...i.p.B.].%X0XsX9X9XsXtXtXtXtX9XtXwXwXdXeX",
"tXuXuXuXdXdXdXdXwXpXiX#XU.r.a.P.~.f.P.s.f.W.N.W.N.N.V.V.y.H.~.d.w.9.7.).%XtXtXtXtXeXeXeXeXtXuXuXwXtX",
"uXuXdXdXiXdXdXdXsX*X`.B.s.s.a.i.8...8.W.Q.A.C.M.t.l.0...&.W.~.W.T.Q.d.#.$.(.%XtXeXeXeXeXeXtXtXuXdXdX",
"uXuXuXuXdXdXdXdX#Xc.{ u.T.a.y.T.L.N.| *.;.O.@.6 _ 6.6.;.V.V.N.N.J.b.w.9.%.r.Y.{.eXeXeXeXwXtXuXuXtXwX",
"pX>XiXuXpX0XpX{.j.S.!.c. . .).V.q.` 2 X # # + O > o   4 ` @.D.D.A.} %.R.R.J.$.j./.2XrX2XsX0XpXiXtXwX",
"dXpX0X0X>XpX{.c.B.S.M.M.Y.q.:.t 2 3 # o 5 , d d , l j 1 O o _ 3.^ :.j.r.b.p.r.q.Z.`.<XrXeXuXyXyXtXdX",
",XiXdXuXpX#XN.c.I.S.S.F.C.( ; @ o > , , M g c z N c g G D h 1 + E x.Z.I.u.H.J.I.O.h.`.sX4XiXyXqXuXwX",
"dXdXdXpX-X&.-.s.V.v.(.C.^ ; - & h g b g N c z z U B f v B k G j C V z.D.U...G.q.$.h.z.OXsXwXqXpXtXtX",
"eXrX,XsX_.y.N.y.u.u.g.( - * h % b c c f N z v z v x z v f i n H S O 6 h.&.9.i.p.n.q.Z.m.1XpX8XpXuXtX",
"rX;XsX-Xu.^.^.P.s.M.t X O h i p c g c f N v z z c z f N B g c g H S R ; e.H.E.R.R.n.h.x.oXpXpX8XtXtX",
"rX;XrX{.0.s.N.H.R.R.7 : & l f I v z z g N c z g N B z c p p I U a m S 0 } '.G.H.J.I.} /.F.9XpX8XdXeX",
"6XrX4XY.y.p.W.P.U.:.. 5 a p v z v v z p n z g v M c z H N z v z P s S - } R.E.R.G.-.j.C.C.<XqXpXtXtX",
"dXpXfXy.N. .7.c.k.9 + = p n x x v v z g B b g l H m z H n m v L v v N h 6 ;.j.B.*.q.*.h.Z.#XpXuXtXwX",
"wXdX>Xy.f.%.s.c.C.! * % f n v f B v x z N N c b S z l B x z v L z c b j T z.z.v.v.v.q.j.A.XXpXwXwXdX",
"sXtXfXN.V.f.V.c.A.e 4 < V S S z c c g f c c f f B c g B z z v v g g D F ^ D.S.K.I.I.q.g.k.XXsXwXdXtX",
"2X9X>Xs.V.V.s.y.M.w @ o & Z V j b g g d k k l l C d g k g l g b g , 6 8 e B.I.K.T.U.q.j.k.XXsXeXtXtX",
"eXsX,Xv.W.~.f.N.V.r 2 8 T Q Q R R Q E Y W W E E ! 9 q _ E E R R J F _ e { N.P.L.E.T.e.l.Z.OXsX5XeXdX",
"2XrX<Xj.s.f...y.W.{ w _ o.1.>.] 1.;.=.=.4.;.=.:.;.=.=.6.3.=.4.5.] ] @.X. .H.f.f.p.c.r.g.z.OXsX5XeXdX",
"rXrXtX).f.N.8.f.N.y 2 7 E _ Q Q ^ ( ^ ^ ^ ^ y e e w q ^ q q ! E Q Q _ y r a.p.8.p.c.&.q.l.XXsXeXdXwX",
"eX3XpX Xd.~.W.W.Q.t 3 . + < $ * & 4 4 # 4 4 & 4 4 < > 6 > < < < < + 3 2 r K.W.L.T.T.e.l.m.OXsX5XtXwX",
"eXeXsX|.9.f.a.y.v.e @ 4 * J G g b N b m B M b c M g f M k g M k M d F 9 0 j.u.w.7.u.$.r.C..XpXtXtXeX",
"9XtXpX XG.R.L.T.D.( # i i n x p x L x x L x x x L v x L v z B c c d K F q C.M.B.n.I.q.j.F.XXtX8XwXdX",
"tXsXyX'.a.d.p.u.k.W O i p I L x x L x s L L s x x x x L v x N z z z G V 9 6.:.u.r.0. .q.C.$XsXwXdXtX",
"eXsX7XI.p.d.a.n.C./ O * i n P z x v x x x P x z L v z I n z n c z c H V ! z.*.q.0.u.X.g.Y.*XpXuXwXtX",
"eXtX:Xc.J.L.J.R.Z./ O i i B v z x B c g v B c c B c g M m d k H x d l < / F.c.I.c.c.X.C.(.<XpXwXtXdX",
"rXsX>Xc.T.L.n.J.M.^ O i f N N v c B c g v B c c B g f G S d G K [ K K 6 8 q.$.r.0.w.{ M.D.,XrXeXeXtX",
"2XeX>Xj.T.L.E.I.Y.o.- 1 % b g f c B z c v n z z n b m S S J ~ G S , F 9 e A.J.T.J.n.X.Y.F.4XeX5XeXdX",
"eXwX>X0.b.a.d.b.C.( o < , G M c c B z z n n v x n n m p S U [ l g d _ W e v.b.b.b.b.} C.C.wX4XiXdXwX",
"4XuX0X).y.f.y.j.h.9 & i C n x z c v c z B v x z N c b n z n U U S H ~ Z 7 t.v.n.u.n.X.r.Z.@XsX9XtXeX",
"wXuXpX].N.L.K.U.(./ & = i S b v z b z z c c f z B z z z g z n n n n ~ R ( Z.A.J.U.R.e.j.U.XXpX9XdXtX",
"dXdXpX].N.P.K.B.A.y - & V J k d b B b v n b c n n b b n z c n n b C Z 6 ( Y.U.E.H.I.e.q.C..XpXsXuXtX",
";X1XiX_.s.P.L.H.(.} ; - 4 Z 5 1 h j 1 , V l 1 h C % h j h h V j 1 * 5 7 r R.E.E.E.R.c.g.F.oXsXeXwXwX",
"rXrXsX).c.H.P.G.K.{ 7 0 ! _ _ _ _ ' ^ ^ _ _ ^ / / ^ / ' / / _ _ Q Q o.(  .H.p.8.H.H.q.u.Z.OXrX4XeXdX",
"6X4X>Xc.7.y.i.8.a.r u ( o.@.] ] +.=.O.O.=.=.O.+.=.o.O.=.O.O.=.+.] 1.1.X.{ d.i.8.i.u.$.;.Z.$XsXeXdXwX",
"5XrX0XM.H.W.~.L.Q.| 7 7 6 ! R R T R Z 9 R T 9 Y T 6 T T 9 Z T Y J Z E 0 { U.T.~.L.T.0.M.F.&XrX5XeXwX",
"4XrX:Xu.s.f.i.y.c.u . @ 4 6 1 > 1 h 1 1 1 1 * 1 1 * 1 h 1 1 1 h d * 4 3 y I.L.J.J.J.-.k.Z.<XdXiXtXtX",
"5XiX-Xs.E.a.s.w.C.` ; 5 * J S j k S b k n S b m H b m H b f H b b b J Y ( D.Y.I.I.R.q.v.C.<XsXwXwXtX",
"pXpX7Xy.d.i.s.a.g.q o 5 i S b c b n c z n n c c n z g N n g n v f s H A W x.j.q.v.n.r.n.Y.=XsXsXtXwX",
"0XuX-X7.w.8.s.j.h.W O i i v z z z N b g b n z m n b f b b f n v P x m p Z 4.q.-.c.e.$.q.M.@XqXuXtXwX",
"uXpX0Xb.L.P.W.A.Z./ & l f N v z n n c c n N b c n b x H n z n n x x n C Q x.Z.A.I.A.e.e.U.@XpXiXtXtX",
"fXdX>Xs.T.E.T.B.D./ O % i N n x x v x x v x x z x x x v v z x v s f S Z W z.v.v.u.n.0.:.Z..XpX0XwXwX",
"sXpX>XN.T.H.J.V.(.o.# 1 d H M z v I v z I L v v I n v I v x I N n b J R ^ m.n.B.n.I.q.;.A..XpXdXtXwX",
"4X4X-Xc.J.i.s.H.k.^ @ & = l d = d j d % l j d , j d % l h % h l l % 5 8 u c.n.J.J.J.&.u.Z.}.sX4XtXwX",
"dXdXfX!.Q.j.J.(./.t.' 1.>.2.2.,.,.<.1.1.<.<.1.1.<.,.1.<.<.>.<.2.2.1.<.5.;.Y.J.n.b.U.j./.`.$XpXwXwXwX",
"rXdXdXiXpXpXpXsXpXsXsXrXrXrXrXeXrXrXrXrXrXrXrXrXrXrXrXsXrXrXrXrXrXrXsXsXsXsXpXpXuXpXpXpXsXrXwXwXwXwX",
"dXdXwXdXwXdXtXtXwXuXeXeXuXwXwXwXdXdXuXdXdXdXdXdXuXdXdXdXdXdXuXdXwXwXwXwXeX9XtXtXeXtXtXtXtXwXwXeXtXwX"
};
