/* XPM */
static char *Ian_Maclure_s__Level_Up_and_Post_Work__WIP_Thread__1_1684854837[] = {
/* columns rows colors chars-per-pixel */
"50 50 42 1 ",
"  c #565D27",
". c #5E5D27",
"X c #4F6326",
"o c #456C27",
"O c #4D6B26",
"+ c #4F6729",
"@ c #4E6C28",
"# c #536526",
"$ c #5C6427",
"% c #536C27",
"& c #5A6926",
"* c #546628",
"= c #5B6529",
"- c #546D29",
"; c #5A6D2A",
": c #4C7427",
"> c #4E7429",
", c #4E7929",
"< c #537327",
"1 c #5A7327",
"2 c #557C27",
"3 c #54742A",
"4 c #5A742B",
"5 c #557B2B",
"6 c #5A7C2C",
"7 c #5B7B31",
"8 c #626C2B",
"9 c #61742C",
"0 c #627B2D",
"q c #56812B",
"w c #5B832C",
"e c #5D892E",
"r c #5B8530",
"t c #5E8B30",
"y c #61852D",
"u c #618B2E",
"i c #66912F",
"p c #6A942F",
"a c #638230",
"s c #628D30",
"d c #698C33",
"f c #669231",
/* pixels */
"wuw69;==;15wuueww214;636wtqq,,:<;&#$44wwwqqrqqq4ww",
"uuua4;;;567qwwwwww111660rqeqqq4<4&..406qwqq5wtwwuu",
"wuy00966yrw6uewuwww6556&wttqqqq25488&045,55qiufeii",
"er4446wtu5uuiuewyw2134135rtqqwq56949&;43><3wifeeie",
"y4=176w5uuppuuwwwy23544wqetqqqq,5664443--3qrtwwtee",
"w4626www2wpuywwwww415462wwswqqq,5553471%;5qteqwese",
"t6weeeqq2wwww446ww1&166w2wswe5,qq5>363;%355qewqeee",
"wwqwqqqw5wwww096ww9&14yuwwrq53:555>3-+O33:5qqqqwq5",
"65qqwwewwqwwyyww4541342ww635435>2::23%@<->335315qq",
"qqeweewqeiuww0698;r42441366wwwww<:25253;3<;-*;335q",
"qqweeqee1yuw660063653541ywyeewww2w2qeww53%;-*=&<,q",
"qqqqwwwiu6y66644766y2wwq46q46wwwewuewuww2344;4665,",
"2qeeqewyu6y46614666rw5ww65544qwwuwwwwuwq4344406www",
"eqweuewywww53;446r75wweww53733qw2wwuwwqq5534<46w5q",
"qqewweqw66144-3wywruueq,w53<;32wwqq4wuw,q444525w5,",
"eeieeq1w6664455wuyuuwe55ww5<-<<5ww22wq25233w25555,",
"qwwer6136;444wwywwe2wwqe224313-422ww5wq22wy2qqqq5q",
"qw23431331&;6awww5wwy02000435<-%3526552qwqqw5qq2qq",
"qqq3--&-3;444ww2wyew061&94435>-#;5552wwwuwqwqq5,,r",
",55,-#X#-*46ywwwyy2w491115w555<;;<36wwwyuew2q,3,,,",
",,q,:O+#--36ww2y262y6&126w267w--;<-5666wwwww5>,>,q",
"q,,::5:>3>555qr6wuw2096www66266<<;--034462643>5,,r",
"tq,qqqqq,>5<@6wwuiqwww2qww4655333O+34;-311<%O,5qtq",
"tqefr5555-+>O36wuywqqeyetq5663<43<<3333;%2;-O@5rtt",
"tttttqqq3;@33<35uqqeeeeeqq5564;3533663wr,3+@>o,,qt",
"tttttqqq333w333>5qeeeueeeew5;=-5655rr5rw53<@@,o,qt",
"etqttq,,332wr53532weweeeeew3;=135rtr5qr655@-@>oqqq",
"qqqqq,:,44aw6666<weeweeueww<#365q56537wr653-37,,,q",
",qq5,633446y6646yudeerswqw3#--56w26636waw53<:qqqqo",
",5645646w4666w54yew2r7wq55;**5qw25535www5625qqoqqq",
",q;5eewwwwww2536w5355332r6--4ww55336ww656246qq,qqq",
",55wywwau6663<355>35365571-<5255555yw2556236q,qq,q",
">;6y0yuyy088435536w557555;@>53w575ww6555535w555q5,",
"3;06046yq6;;45q43653,,753;*33555wr6473355-@755qq>3",
"6w766046ww4446540w7q5@5>--473555655553553@332w644-",
"yewwww6ww52y0990aarw4;37494655r5533534673-*3604663",
"6w5q5qw55554y9806744443a0977-5773533733441;;49;365",
"55552w662weww041454;-;;14;443-3;-333;-3<4744=93rq3",
"552333226wtww36335635*-;33433--;=;@@-;4-443=377qq5",
"ww2;;-wuw2w565>3>36w3346-7735O>3;@@*;44743>56qewe5",
"euw1&15252q25w6>565y6yy5-467r3>3<>3&=66343,5qqtttw",
"www62w5552553265wwwwrus45wdwww55555644443>q5rtrree",
"we69y6wq65qq4<5yyw66604667ay665555544444>@>qwttqre",
"ww4;3135555,3;wdy6726yuw773y2qq5rq574;3>:>,qeftrww",
"wq11%-O:5>>,54uw2yy6yy66uew5rqqq>q5<3+>>,tqeeeerqq",
"we4;3;*335>5wywywwy666ysdiw5qq,r553<;<3weqeetuewrq",
"wr43-*;;3355676w6;434ywrffew,,,55253-;1qqqetew5wtr",
"6w643*;;-*6484614;437wqqweew,,,55%-;;14wqqweeq>wtr",
"w6361&$== 4w5w20y&;3;5w6trteqo@@%XX##+@55q,,>>>>5,",
"wuw348$&=$6wwuuew431<56rtttq,:@@-*#%-<3>qq555353>7"
};
