/* XPM */
static char *_302debcd625458ac2ab4cdbfe814b16vmGIMQgwvLS7pZJc[] = {
/* columns rows colors chars-per-pixel */
"50 50 213 2 ",
"   c None",
".  c #393700",
"X  c #424500",
"o  c #454A00",
"O  c #4A4D00",
"+  c #4C5400",
"@  c #485800",
"#  c #545E00",
"$  c #515700",
"%  c #4D6000",
"&  c #5B6D00",
"*  c #536800",
"=  c #567400",
"-  c #5D7300",
";  c #5B7A00",
":  c #637500",
">  c #6D8501",
",  c #6C8A00",
"<  c #638600",
"1  c #708700",
"2  c #728C00",
"3  c #6E9B00",
"4  c #679500",
"5  c #709E00",
"6  c #7B9D00",
"7  c #6EA003",
"8  c #75AB00",
"9  c #74A200",
"0  c #7FB300",
"q  c #7ABD01",
"w  c #7EB908",
"e  c #7DC400",
"r  c #7ED500",
"t  c #7FD902",
"y  c #7BFF0D",
"u  c #7DFF03",
"i  c #8AAC00",
"p  c #84AF00",
"a  c #93AD00",
"s  c #93A600",
"d  c #86B702",
"f  c #8DB401",
"g  c #8BBC00",
"h  c #81BD00",
"j  c #94B300",
"k  c #95BA00",
"l  c #9BBD00",
"z  c #9BB600",
"x  c #82C603",
"c  c #8CC201",
"v  c #82CC01",
"b  c #8DCB00",
"n  c #8ACA08",
"m  c #94C300",
"M  c #9CC400",
"N  c #94CB00",
"B  c #9DCC00",
"V  c #97CA0C",
"C  c #8DD401",
"Z  c #82D904",
"A  c #8DDD01",
"S  c #88D206",
"D  c #94D501",
"F  c #9CD300",
"G  c #93DB01",
"H  c #9CDC00",
"J  c #9CDB0A",
"K  c #97DD0E",
"L  c #9DC51A",
"P  c #95DA16",
"I  c #A1CD00",
"U  c #A1CB08",
"Y  c #A2D300",
"T  c #A4DB00",
"R  c #A8DE00",
"E  c #A7D40C",
"W  c #AAD40E",
"Q  c #A8D612",
"!  c #AADA16",
"~  c #8EE301",
"^  c #86EF00",
"/  c #8EEC00",
"(  c #8AE209",
")  c #93E401",
"_  c #9BE300",
"`  c #93EB00",
"'  c #9BEB00",
"]  c #94E30C",
"[  c #9AE50B",
"{  c #93EB0A",
"}  c #9CEB0C",
"|  c #83F501",
" . c #8DF201",
".. c #85FE01",
"X. c #8CFF01",
"o. c #8CF509",
"O. c #85FF0B",
"+. c #8BFF0A",
"@. c #95F300",
"#. c #9AF401",
"$. c #94FE00",
"%. c #9AFD00",
"&. c #9AF50B",
"*. c #92FE0B",
"=. c #9BFC0A",
"-. c #91F20C",
";. c #95E914",
":. c #9BED13",
">. c #9CED1C",
",. c #9AE41A",
"<. c #8DFE11",
"1. c #85FF1B",
"2. c #8DFF1D",
"3. c #9DF316",
"4. c #93FE13",
"5. c #9BFB16",
"6. c #93F51A",
"7. c #9DF21C",
"8. c #94FD1B",
"9. c #9BFC1C",
"0. c #A3E300",
"q. c #A9E300",
"w. c #A4EC00",
"e. c #AAEB00",
"r. c #A5E30B",
"t. c #AAEC0C",
"y. c #A5EB0F",
"u. c #A4F300",
"i. c #ACF400",
"p. c #A4FD00",
"a. c #ACFD00",
"s. c #AEFF08",
"d. c #A0F90B",
"f. c #B0F600",
"g. c #B1FC00",
"h. c #B1FB0F",
"j. c #AEE712",
"k. c #A7E718",
"l. c #B2E81F",
"z. c #A4F114",
"x. c #A3F51B",
"c. c #A5FC1C",
"v. c #ADFE1E",
"b. c #ADF115",
"n. c #B1FC1C",
"m. c #B2F817",
"M. c #9EEE22",
"N. c #8DFF23",
"B. c #9DF223",
"V. c #93FD23",
"C. c #9BFD23",
"Z. c #9CFF2B",
"A. c #9CFF35",
"S. c #ACE926",
"D. c #B4ED22",
"F. c #B5E92F",
"G. c #A4F522",
"H. c #AAF423",
"J. c #A2FE23",
"K. c #A5FE2C",
"L. c #A7F72B",
"P. c #B2FF26",
"I. c #B8FF28",
"U. c #ACE533",
"Y. c #B3EB39",
"T. c #B7EC36",
"R. c #A2FD34",
"E. c #A6F63B",
"W. c #A4FC3B",
"Q. c #ABF834",
"!. c #B4FC33",
"~. c #B2FB3A",
"^. c #BDFC3B",
"/. c #B7F838",
"(. c #BBEC44",
"). c #BFEA4D",
"_. c #AEF745",
"`. c #A3FF45",
"'. c #ACFA44",
"]. c #A7FF4B",
"[. c #ACFB4C",
"{. c #ADF54C",
"}. c #B4FC4A",
"|. c #BCFC4B",
" X c #B5F143",
".X c #ADFB54",
"XX c #B7FA59",
"oX c #BBFF63",
"OX c #C0E34D",
"+X c #C1FF48",
"@X c #C3F859",
"#X c #C6FD66",
"$X c #C6FD6E",
"%X c #C6F667",
"&X c #CDFC7B",
"*X c #C7FC79",
"=X c #CBFF81",
"-X c #C8FF88",
";X c #D3FC86",
":X c #D2FA89",
">X c #D3FF93",
",X c #DAF998",
"<X c #D5FFA5",
"1X c #DCFFAC",
"2X c #D9FFA3",
"3X c #DFFFB9",
"4X c #E5FFBD",
"5X c #E5FFC3",
"6X c #EDFFD7",
"7X c #F4FFE2",
"8X c #F7FFEF",
"9X c #FAFFF4",
"0X c white",
/* pixels */
"                                                                                                    ",
"                                                                                                    ",
"                                                                                                    ",
"                                  Y R q.e.f.f.e.e.i.u.#.$...u                                       ",
"                              Y w.i.g.g.g.f.f.e.e.q.q.q.w.w.&.<.y y y                               ",
"                          I u.a.a.g.g.g.g.f.i.e.e.w.q.0.R T H Q S.A.N.1.1.                          ",
"                      I 0.p.a.a.g.g.g.g.f.f.f.e.e.0.0.R R F Y B Y l.~.A.N.N.2.                      ",
"                    B #.p.a.p.a.a.g.g.g.h.m.m.m.b.t.q.0.T Y B Y Y B E Y.`.`.`.].                    ",
"                  T %.p.p.a.a.a.i.I.|.|. XY.U.U.U.U.U.S.k.Y I I I I B Y Y.oX=X:X*X                  ",
"                _ %.%.p.p.a.s.!.%X@XF.j.q.q.q.q.R T U L L L I F I Y Y I U T.>X5X5X>X                ",
"              ' %.p.p.p.a.n.%X@XD.q.e.e.e.e.e.t.e.e.R T M a a M I I I I I U +X4X9X7X2X              ",
"            u.%.%.%.p.a.+X;XT.e.e.e.e.e.e.e.q.Q.j.q.R R R T M a m Y I I I I U @X7X0X7X>X            ",
"          $.$.$.%.%.a.@X,XD.i.i.i.i.i.e.e.q.0.K.(.T T T T R T B a l Y I I I I ! :X9X8X4X            ",
"          X.$.$.%.%.v.*XD.i.i.i.f.i.i.i.e.I 0.4.%XQ Y T R R T T I a M Y I I B B D.2X6X5X>X          ",
"        ..X.$.$.%.$.V.y.i.a.g.g.g.i.i.i.q.l e.X.oXOXF T R R T Y Y I j B I I I M B ^.1X3X1X*X        ",
"        +.$.$.$.%./ G i.g.g.g.g.g.f.i.e.I I u. .A.:XQ Y Y Y Y I Y Y I k Y I B M B r.$X<X<X=X        ",
"      8.$.X.$.$.G d q.a.a.a.a.g.i.i.i.q.z T i.$.2.&X).B Y Y Y Y Y Y Y l B Y I M M F H.#X#X@X|.      ",
"      5.X.$.$.$.k k a.p.p.a.a.a.g.i.e.M l q.a.X.O..X,XE Y I I I F Y Y B k T I M M B D H.P.P.n.      ",
"      4.X.$.$.` s T p.%.p.p.a.a.i.f.q.I Y q.a.$...Z.>X).T Y I I I B Y Y l B T I M B g n y.} {       ",
"    Z.+.$.X.X.G f u.%.p.p.p.a.p.a.u.q.T q.e.u.$...O.W.].V.6.;.[ J E I Y I l Y I B M k 5 v v v v     ",
"    Z.X.X.$.$.b N p.' H ' e.u.a.a.i.q.q.w.e.i.p.$...O.2.V.N.N.N.N.V.6.;.Y l R I B M m , q e e x     ",
"    9.X.X.$.` j _ %.` b m F H _ w.w.w.0.k.y.u.p.5.9.X.....+.+.+.+.+.@.G I I I I I B M > h S S e     ",
"    9...X.X.` m #.%.$.) g N N H H 0.w.F ;.z.u.e.( 4.%.%.$.$.$.$.#.w.M M I I I I I I B 1 5 e e e     ",
"    8.X.X.X.' B u.$.$.$.C b N F H H H N G } w.T ) =.p.a.a.u.e.w.0.l z I F B I Y I M I 1 < w 0 p     ",
"    4...X.X.@.F u.$.$.$.$.b N D N F Y m G [ 0.H H =.i.a.u.0.0.H z k I F Y B I Y I I I 2 & 2 2 ,     ",
"    4...X.X.%._ #.X.$.$.$.#.m D F F F m N [ 0.F D =.a.u.w.H 0.l j I B B Y Y I Y I I I 1 + & - &     ",
"    8...X.X.$.) %.$.$.$.%.p.' g m N F N V J H H D y.u.u.u.H k s M I B Y F F Y T I I I > O = - -     ",
"    8.....X.X./ %.$.$.%.$.%.%.D i M F F F T R 0.0._ #.p.%._ j m I F Y F Y B Y T I I I : @ : - :     ",
"    V.....X.$.-.#.$.$.$.$.%.%._ i m F F F T T 0.0.0.u.%.X.*.V N F F Y Y F F T T I I I & + & & &     ",
"    Z...X.X.$.6.` $.$.$.$.%.%.) i N F F T 0._ 0._ _ ' %.4.J.P N F F T F F B R Y I I I $ + # # #     ",
"    A.+.X.X.$.C.{ %.$.$.%.$.$.D d N H 0.' #.' u._ _ 0.#.*.K.,.F F F F F Y F 0.B I I a X O + + +     ",
"      <.X.X.$.c.>.#.%.%.$.%.%.D b H #.u.u.#.#.' ' ' _ ' $.J.x.N F D H H F T H B I I 6 . X X X o     ",
"      C.X.$.$.d.Q.` %.$.#.$.#.C G @.$.#.#.H C C G ' ' ' #.5.B.D D F G F F _ H N B Y - . o o o       ",
"      W.$.$.%.%.~.G.#.$.$.#.#.C / X.$.) N d c d d b ) ` ' =.9.F F D D H H ) D F F m + O + + +       ",
"        5.$.%.%.c.XX{ #.$.#.#.Z | ..~ c b A ) ) A c c D ` ' 5.J D H H H ` F F D F 6 o + + $ $       ",
"        R.$.$.%.%.|.XX` #.=.#.~ ..~ C ~ / ` ` ) ` ) A b b G &.K D H H ' _ D F F N * o @ + +         ",
"          5.$.$.%.d.&X{.#.p.#.{ ~ / / / / ` ` / / ) ) ) G D ) ) _ H ' ) H F F D 9 @ % % % %         ",
"          W.*.$.#.#.x.=XE.` #.@.@.$.@.@.@. .` ` ` ` ` ) _ ) H _ _ ' #.D F D F b - = ; = =           ",
"            Z.$.@. .@.x.$XE.` #.$.#.$.@.#.@. .` ` ` ` ) ` _ ) _ ' ` H D D D D 5 < 5 3 3             ",
"            .X9.@. .` ` 3.}.W.-. .@.#.#.$.#.#.@.` ` ` ) ) _ _ @.` _ D G G G q 4 8 8 8 9             ",
"              .X5.` / ` ` #.G.A.V.o.` @.#.@.@.` ` ` ` ) `  . .` G G G G G D x e e e q               ",
"                ].3./ / ` @.` } 7.8.4.o.o. . ./ @./  .| | / A G G G G G K P Z r r r                 ",
"                  [.7./ / ` ` ` / ) { o.o.o.| u | | ^ / ) G G G G A G ] z.( t t t                   ",
"                    .XL.{ ` ` ` ) ~ ) / ) ~ / ~ ~ ~ ~ G ) ) ~ A A ) :.x.:.{ { (                     ",
"                        W.7.` ` ` ) ~ ~ ~ ) ) ~ ~ ~ ~ A ~ A A A ] x.c.x.3.3.                        ",
"                          .XE.7.{ [ [ ) [ { [ ) ~ A ~ A A A ;.B.K.L.H.H.x.                          ",
"                              .X'.Q.x.:.[ [ [ [ ] ] ( ,.B.R.~.~.!.!.                                ",
"                                      .X[.'._._._.'.'.}.|.                                          ",
"                                                                                                    ",
"                                                                                                    "
};
