/* XPM */
static char *c3ff753dc7bc4538b46e124e261c2414TzJVsz6cBvjMkR5p[] = {
/* columns rows colors chars-per-pixel */
"50 50 233 2 ",
"   c None",
".  c #040709",
"X  c #140A0B",
"o  c #0D1719",
"O  c #121413",
"+  c #1B151C",
"@  c #1C1C1C",
"#  c #171717",
"$  c #110F10",
"%  c #290B0B",
"&  c #241919",
"*  c #371718",
"=  c #340F14",
"-  c #181625",
";  c #271926",
":  c #2E1939",
">  c #391E2F",
",  c #142535",
"<  c #1C2A2B",
"1  c #232222",
"2  c #2A252A",
"3  c #392927",
"4  c #39312D",
"5  c #3B363B",
"6  c #362C32",
"7  c #461718",
"8  c #591816",
"9  c #6B1B19",
"0  c #751D1B",
"q  c #491927",
"w  c #581934",
"e  c #681C3A",
"r  c #42282B",
"t  c #59242B",
"y  c #583A29",
"u  c #482736",
"i  c #5A2836",
"p  c #4B3C31",
"a  c #662429",
"s  c #772A26",
"d  c #672935",
"f  c #793634",
"g  c #712F36",
"h  c #5F301E",
"j  c #524331",
"k  c #684627",
"l  c #6A4736",
"z  c #785638",
"x  c #6E5230",
"c  c #6F6629",
"v  c #70481F",
"b  c #371C46",
"n  c #3B1F56",
"m  c #3C244E",
"M  c #162D41",
"N  c #582C44",
"B  c #45245B",
"V  c #462558",
"C  c #4E334D",
"Z  c #69304C",
"A  c #693451",
"S  c #752F47",
"D  c #432365",
"F  c #4B2665",
"G  c #572C6A",
"H  c #572C77",
"J  c #673478",
"K  c #31504E",
"L  c #31706A",
"P  c #4F4F4B",
"I  c #675845",
"U  c #795342",
"Y  c #654359",
"T  c #76454C",
"R  c #746353",
"E  c #7E5377",
"W  c #71466B",
"Q  c #507E7A",
"!  c #70757A",
"~  c #8A231F",
"^  c #86221E",
"/  c #872725",
"(  c #972826",
")  c #87362B",
"_  c #892D32",
"`  c #952E32",
"'  c #8A3738",
"]  c #963839",
"[  c #A62E2D",
"{  c #A73335",
"}  c #B23538",
"|  c #A22F30",
" . c #8A4639",
".. c #97583E",
"X. c #845335",
"o. c #9A6934",
"O. c #B26A33",
"+. c #C27D33",
"@. c #88254C",
"#. c #8A3A4A",
"$. c #983B46",
"%. c #912C53",
"&. c #A93C45",
"*. c #B73D45",
"=. c #8A3B66",
"-. c #AA3264",
";. c #B8336C",
":. c #A92D61",
">. c #C73775",
",. c #845946",
"<. c #975247",
"1. c #944756",
"2. c #944D4C",
"3. c #B6434D",
"4. c #A44454",
"5. c #A94859",
"6. c #B44856",
"7. c #A6564E",
"8. c #8A644A",
"9. c #966846",
"0. c #876751",
"q. c #986C55",
"w. c #977155",
"e. c #8A745A",
"r. c #A4634C",
"t. c #A97A5B",
"y. c #B17154",
"u. c #884D6C",
"i. c #B54D60",
"p. c #B45671",
"a. c #947D64",
"s. c #917573",
"d. c #B2736C",
"f. c #C2444E",
"g. c #C44652",
"h. c #CE4E5E",
"j. c #C54B59",
"k. c #C6515E",
"l. c #C6704E",
"z. c #C95367",
"x. c #D55669",
"c. c #D7576B",
"v. c #CC5A73",
"b. c #DE5E76",
"n. c #D85D76",
"m. c #CE4F60",
"M. c #C96377",
"N. c #D9637C",
"B. c #E2627C",
"V. c #E05F77",
"C. c #57827E",
"Z. c #BEB73E",
"A. c #D09039",
"S. c #B18252",
"D. c #A8896A",
"F. c #BA8668",
"G. c #B69574",
"H. c #AE906E",
"J. c #B2A840",
"K. c #C78C68",
"L. c #CA926C",
"P. c #C79576",
"I. c #D2936F",
"U. c #E99769",
"Y. c #F39E6E",
"T. c #E69C73",
"R. c #D6A27D",
"E. c #C9A47F",
"W. c #EEA379",
"Q. c #F3A372",
"!. c #F4AD7D",
"~. c #F2A578",
"^. c #E3A840",
"/. c #D9D04B",
"(. c #6B3687",
"). c #783C91",
"_. c #777C85",
"`. c #803F97",
"'. c #884990",
"]. c #B55A86",
"[. c #B76A88",
"{. c #DA6A85",
"}. c #DD7B98",
"|. c #CF6F8F",
" X c #E46682",
".X c #EE6E8D",
"XX c #E86986",
"oX c #F06F8F",
"OX c #ED7494",
"+X c #ED7A9B",
"@X c #E97594",
"#X c #EF7293",
"$X c #DB66A9",
"%X c #E36AAE",
"&X c #EF7EA2",
"*X c #C25B94",
"=X c #578A84",
"-X c #7F9896",
";X c #879391",
":X c #A6B2B3",
">X c #A7AEB0",
",X c #A4A49D",
"<X c #D9AB86",
"1X c #DAB38E",
"2X c #CFB28F",
"3X c #E4AB87",
"4X c #E9B58B",
"5X c #F4B789",
"6X c #F5B788",
"7X c #EDBA94",
"8X c #E5BD96",
"9X c #F2BE93",
"0X c #F3AE84",
"qX c #EB87A8",
"wX c #ED94B6",
"eX c #F096BA",
"rX c #F199BD",
"tX c #F091B4",
"yX c #EC8CB2",
"uX c #C99A80",
"iX c #E9C197",
"pX c #F5C49A",
"aX c #F6CCA3",
"sX c #F5CCA9",
"dX c #F9D3A6",
"fX c #F7D5A7",
"gX c #F0D3B0",
"hX c #F8E1B2",
"jX c #D1C1A3",
"kX c #F29AC3",
"lX c #CFD2D0",
"zX c #F6DDC3",
"xX c #F6F2ED",
/* pixels */
"                                = a #.&.` a 8 ~ } m.V.b.5.i j c #.v.i.d                             ",
"                7 t 7 j       t i. Xv.6.4.] 0 ( &.3.5.4.&.$.f c 1..XoX@Xu.                          ",
"            d [.|.{.4.J./.c f N.n.4.$.4.6.3.3.] ` ` | *.j.m.m.5.#.5.|.kXwX2.                        ",
"          f }.kXkX&X7././.<.n.6.$.z. XoX.X.X.XB.V.V. XV..XoXoXoX.Xv.i.[.N.6.a                       ",
"        d N.#XqXeXyX0.Z.o.v.1.6.XXoXoXoX.X.X.X.X.X.X.X.X.X.X.X.X.XOX+Xd.4.} ~                       ",
"      = i.oXoX+XyXM.y c i.i.i.yXqXOXoXoX.X.X.X.X.X.X.X.X.XOXOXOX+XqXrXrXp./ ~ 7                     ",
"      d  XoXoXXXB.| = t v.2.qXrXrXeXtXqXqX&X+XXXXX+X@XqXyXtXrXeXeXeXeXrXkX1.= %                     ",
"      &.oXoX.Xc.h.^ & 4.4.M.kXrXrXrXrXrXeXeXqX3.M.rXN.M.tXrXrXrXrXrXrXeXwXqXr $                     ",
"      z.oXoXh.c.*.8 * z.$.qXeXtXrXrXrXrXeX}.4.s 6.rX|.( k.qXrXrXtXyX+X+X.XoX1.                      ",
"    7 z.V.g.g.x.^ % g 5.3.+X+XqXeXrXqXqX}.{ r.t.] qXqXf ) &.{.OXOXoXV.c.N.oXv.*                     ",
"    7 *.[ [ g._     #.] z.oX.X.X@X@Xk.N.3. .W.<X..k.XX2.F...` h.V.oXV.*.f.oX Xd                     ",
"    * ( / ( 0       _ ` b..X.X.X.Xx.} c.' L.iXpXP.] h.6.F.3Xt.) } B. X} [ V.XXS                     ",
"      0 8 8         _ `  X.X.X.XXX{ | j.<.0XpXaX7XF.] 3.7.4X7XP.' &.B.( ( m..X#.                    ",
"      7 X           9 `  X.X.X.Xx.0 s 3.d.9XdXdXaX7XF.' ] F.7X7XR.2.f.s 0 j..X1.                    ",
"                    8 ` V.oX.X.X3.) ) ` t.G.G.G.<XiXiXP.f ' <XpX7XK.) 8 9 f..X#.                    ",
"                    = s c.oXoX X[ ..y.s l 3 p j I R H.uXP.2.8.1XD.z l = 9 g..X#.                    ",
"                      9 c.oXoXc.( r.U.,.,.X O m 5 < j D.1X1Xt.U 3 & * * 0 h.XXg                     ",
"                      9 x.oXoXh.~ y.W.T.F.3 ;X:X,XC.. p 8XfXjXD.-X6 r * ~ c.{.t                     ",
"                      7 k..XoXg./ l.~.5X3XR lX>XP K . < 2XsXgX>XP o 3 = | XXv.                      ",
"                        $. XV.g./ l.Y.6X5X,XxX:XK o . K jXsXgXlXK o 6 8 3.oX1.                      ",
"                        a z.j.g.^ O.U.!.5XpXxXlXC.L C.;XzXaXgXxX=XC.I 0 m.{.i                       ",
"                          _ } f./ 7.U.Q.0X7XhXxX:X=X;XlXzX8XsXxX:X;X,.( x.5.                        ",
"                            ~ } ( q.0XQ.Q.0X6XpXfX1X1X1X4XiX9XpXpXI.) } z.u                         ",
"                              / [ f P.5XY.Y.~.0X6XiX3XF.L.0X6X0XQ.r./ { d                           ",
"                                ~ 0 3 a.R.Q.Y.Y.Q.!.!.!.!.~.Q.U...8 0 7                             ",
"                                  9 7 5 P 8.F.K.U.U.U.U.U.U.y.k + %                                 ",
"                                    % &     @ 3 k x x h k j                                         ",
"                                        $ X - 3 o.O.A.O.v                                           ",
"                                      & A u.=.=.u.S o.^.A.y                                         ",
"                                    j 2 m C C m Z u.u.s.s.W W E u.E E E Y C 2                       ",
"                                l I.q., M , , N ].%X$X$X%X%X%X$X%X%X%X%X*Xu.N #                     ",
"                                K.W.z o - O + u u u u u Z A Z Z Z Z Z Z N u ; #                     ",
"                              t.iX!.K.4 1 @ & 1 @ @ 1 o 2 r 3 # O # o O $ ; # $                     ",
"                              e.iXpX!.F.,.k 1 2 5 p p m C Y A 2 1 1 @ 1 o u > O                     ",
"                                G.fXfXfX5XP.D.I ! _.-X! _._._.1 O l j e.j D.3 $                     ",
"                                I 2XhXhX<XD.1Xw.; n n : + B F .   2Xw.8XS.iXR                       ",
"                                  I jXfX2XuXw.U + + - - + H (.    w.8.K.8.D.w.0.                    ",
"                                    I 2XG.<XF.> D D D D D H F                                       ",
"                                    < D.iX8.u b n n B F F b ;                                       ",
"                                    < 4 z l b H D H (.).).b                                         ",
"                                          b (.`.B B B G J G                                         ",
"                                          B ).'.G   : G ).).b                                       ",
"                                          B (.'.J   : F J u.8.                                      ",
"                                          V J '.W     U r.S.z                                       ",
"                                          X.o.t.9.    k 9.K.y.                                      ",
"                                        ,.K.y.l         9.i.#.e                                     ",
"                                        w.W.L.          e @.%.e                                     ",
"                                      & d #.#.q         e w S %.:.%.w                               ",
"                                    q %.;.>.>.;.d       * @.:.;.;.>.;.w                             ",
"                                  & @.-.:.;.;.>.-.>     N ].p.].].[.*Xu.                            "
};
