/* XPM */
static char *_63f918d5dcd47e6dc791f0fc9d7c06dSyQiDs04RrI7TpBo[] = {
/* columns rows colors chars-per-pixel */
"50 50 143 2 ",
"   c #4E621D",
".  c #4B6C1E",
"X  c #55671D",
"o  c #52681F",
"O  c #4E761E",
"+  c #547D1F",
"@  c #4C6622",
"#  c #4D6D22",
"$  c #4E6C2A",
"%  c #556424",
"&  c #526D25",
"*  c #586D25",
"=  c #506628",
"-  c #5B6729",
";  c #546D2A",
":  c #596E2A",
">  c #4E7424",
",  c #4E7A24",
"<  c #4F7329",
"1  c #4F7C2B",
"2  c #537425",
"3  c #597526",
"4  c #547B26",
"5  c #597C26",
"6  c #55742A",
"7  c #5A752B",
"8  c #557B2A",
"9  c #5A7C2C",
"0  c #5B7431",
"q  c #5C7D31",
"w  c #607C2E",
"e  c #607731",
"r  c #617D32",
"t  c #4F8122",
"y  c #548325",
"u  c #588326",
"i  c #56812B",
"p  c #5A8529",
"a  c #5D8429",
"s  c #5F862B",
"d  c #5E872B",
"f  c #59802D",
"g  c #5B812C",
"h  c #5A802D",
"j  c #5A812E",
"k  c #5B812E",
"l  c #58822E",
"z  c #5D802C",
"x  c #5C822D",
"c  c #5F832C",
"v  c #5D802E",
"b  c #5F802F",
"n  c #5E812F",
"m  c #5D832E",
"M  c #5C822F",
"N  c #5F822E",
"B  c #5A852C",
"V  c #5C842C",
"C  c #5E852C",
"Z  c #5E842D",
"A  c #5F862D",
"S  c #5F852E",
"D  c #5E842F",
"F  c #5F872F",
"G  c #5C832D",
"H  c #57892A",
"J  c #5D892A",
"K  c #5F8B2C",
"L  c #5D882E",
"P  c #5E892F",
"I  c #5B892E",
"U  c #568031",
"Y  c #5E8131",
"T  c #5C8330",
"R  c #5D8330",
"E  c #5F8230",
"W  c #5F8232",
"Q  c #5A8430",
"!  c #5E8431",
"~  c #5E8532",
"^  c #5F8532",
"/  c #5C8632",
"(  c #5D8331",
")  c #5E8B31",
"_  c #60802D",
"`  c #61832D",
"'  c #61812E",
"]  c #60822E",
"[  c #60832F",
"{  c #62822F",
"}  c #60842D",
"|  c #60872C",
" . c #61852E",
".. c #60862F",
"X. c #62862E",
"o. c #63872F",
"O. c #60842E",
"+. c #61882D",
"@. c #60882F",
"#. c #608B2F",
"$. c #628B2F",
"%. c #628E2F",
"&. c #60882F",
"*. c #618030",
"=. c #608130",
"-. c #628131",
";. c #608331",
":. c #618032",
">. c #628133",
",. c #628332",
"<. c #618430",
"1. c #628430",
"2. c #618730",
"3. c #608631",
"4. c #618432",
"5. c #628533",
"6. c #608633",
"7. c #638632",
"8. c #648733",
"9. c #608034",
"0. c #608734",
"q. c #638634",
"w. c #638636",
"e. c #618433",
"r. c #628930",
"t. c #638932",
"y. c #638B32",
"u. c #648B32",
"i. c #648A33",
"p. c #638E32",
"a. c #658834",
"s. c #668935",
"d. c #668E35",
"f. c #668C37",
"g. c #628A33",
"h. c #688B37",
"j. c #688E37",
"k. c #6A8E37",
"l. c #688E37",
"z. c #638338",
"x. c #669135",
"c. c #619034",
"v. c #6D903C",
/* pixels */
"[ N E 9 8 2 # # > > 5 ) 8.D u | 9 z 4 2 2 4 9 5 9 7.T 4 2 8 4 . * X   X 7 r r 9 r N 9 y y y y y J u ",
"8.a.q.N 5 6 > 2 8 4 4 5 ..L | | [ w 5 2 2 5 5 4 T e.^ 5 8 i 5 2 w X X X 3 7 e 9 q 9 5 u J %.a u %.%.",
"8.a.7.9 8 8 9 j w.N 5 g ..$.+.o.` [ 9 2 2 4 4 2 T ^ T j 5 j i 4 7 7 3 ; : : 3 9 4 2 2 g u.x.%.J %.u.",
"N 9 5 8 9 q E E e.7.T f.h.u.V | ` ` 9 2 2 3 5 2 j E T T i j 9 8 w 7 7 6 3 7 7 6 2 2 4 N a.u.$.| $.L ",
"V 4 2 2 5 E W q [ :.h.v.k.o.z ` ` w 9 3 2 3 9 5 8 ^ ^ T j i i 8 q 7 7 0 q 0 6 > # 6 q e.e.T [ V $.L ",
"..5 4 2 9 e.E 9 N ..a.a.| 5 u ..w w 3 3 3 9 9 9 T ^ ^ / U 5 i 8 q 6 6 6 0 8 6 < 6 9 W z.:...[ ..L L ",
"D g g g T T j j [ z ` [ w 5 5 z [ w 3 O 2 3 ..[ T T ) / i 1 1 , q 8 6 < 6 < > < 7 7 q q 9.:.:...V p ",
"9 g D T j j N j 9 5 9 [ ..z 5 5 -.w 3 2 O 9 [ [ j E / B 8 , > , 8 8 4 > # # $ < 6 6 6 q :.>.-.[ 9 y ",
"g i 5 B 7.D B g N ..8.[ 9 :.8.r 5 9 5 3 5 3 9 9 8 8 4 8 1 8 , 8 , 4 6 1 > > $ $ < 6 6 7 7 7 3 8 i 5 ",
"y g D T D ..D D z 7.7.w N r N 9 2 3 6 3 2 2 2 2 5 5 j T j B i i , , 4 8 8 8 0 1 6 ; & # & ; 2 2 9 y ",
"4 i ) T V V ..$.z | ..[ 9 r q 9 3 2 5 9 5 4 8 4 i j E T T T T T 4 8 i B ( W q q 6 6 & . . & ; 2 4 4 ",
", i D D V z ..V z ` ` 9 9 3 6 3 5 9 N 9 N N 9 9 8 8 8 j j E E j p i B T / ^ / q 6 6 6 6 7 2 7 5 4 1 ",
"i y i B 7.) | z ` u z 5 5 3 6 3 5 5 8 i 9 T j j 9 5 4 2 8 5 N [ V J p D ) T q q 8 1 0 8 7 q q 9 U T ",
"B j B D r.r...u ` 5 5 5 3 6 6 9 q 9 8 j T / T j 9 9 2 O 2 2 9 N a u y u D / i 5 8 0 6 6 6 8 q q T i ",
"T ) ) ) D D V V ` 5 3 3 6 6 7 q W / / T ^ ^ N 9 [ 9 5 2 2 3 5 9 a u + 4 g B g 8 8 8 6 < 6 6 9 T 8 4 ",
"B T ) T D z 5 z ` 3 5 2 2 2 9 :./ ) ) 8.) ^ 5 4 z 9 2 2 & 2 3 3 | y + 5 y j 9 8 6 6 8 8 q 9 8 4 1 1 ",
"i i T T q q 7 6 e 7 2 : 9 w [ ..T i 9 j j j E e.q 6 6 7 7 ; 6 6 8 j j 9 5 5 8 y i g j j 8 8 T U i i ",
"i i 8 8 7 0 : 0 0 : : 6 w 9 ` z ^ T E T / 5 8 9 q 9 7 7 7 6 ; 2 7 4 8 8 i 4 5 5 i g g i i U i q i U ",
"B i 8 4 6 ; 6 ; - : : 7 w w N 5 D z T T V 5 2 O 9 9 9 3 7 7 & # 2 2 2 8 9 g j N D D i 9 U i 1 1 i i ",
"y , , 2 2 # @ @ ; ; : 9 r q q 8 u y g N 5 2 2 O 6 9 q 7 3 7 6 # 6 2 6 9 j N 7.r.r.T j i 8 8 6 > 1 1 ",
", , , , > > @ @ & ; 7 0 q W W T g y 5 5 5 4 5 5 5 9 r 9 9 r 7 & 6 & & 8 9 9 9 [ e.:.9 8 8 6 < < , 1 ",
"t t O , < 8 6 7 ; 6 6 8 q q ( W r.z u u y 4 5 9 9 w 9 9 9 9 7 7 6 # . 2 3 2 2 2 9 9 8 2 > 6 1 q t i ",
"y H y t 8 8 9 q 6 < 6 < 6 1 q W p.L V a u u 9 z :.9 5 9 9 3 3 3 6 # # 2 7 2 2 2 2 4 6 2 > < 8 W U H ",
"H I ) ) ^ T 8 6 < < $ $ < < 1 ( D p p J V u z V 8.9 3 9 9 2 6 9 0 & # 7 9 6 2 8 2 2 6 2 # # 8 z.) Q ",
"I c.c.) / T T ( < 2 6 6 1 > < 4 V p p y D r.a.D o.z 9 :.9 O & 2 9 ; 6 q q 7 9 :.4 > > # # # > < ) ) ",
"I I c.) ) U 8 q < < 6 8 8 6 6 8 y p p p L p.u.T 8.[ 9 9 5 2 & 2 0 q q q r 9 9 :.3 2 # # # > 6 1 U Q ",
"H H ) ) ) i 8 , > 4 9 q q 8 8 8 O 4 p D $.D 8.) 7.T E 2 > # 2 3 7 q z.q 9 9 r :.9 8 > . > 6 8 < U U ",
"t i Q H i , > > 2 4 9 7.W q 8 q 4 y L L L D T ^ N T 9 > . 6 7 9 q q 9.8 6 9 E 9 9 9 > . > q q < t 1 ",
"8 4 i 8 5 8 , > 4 4 9 :.q 9 3 5 $.) r.) / B / ) q T 6 # . 6 q q 8 q 8 2 8 N T i g 5 , O 4 U T 1 , , ",
"1 1 , 1 5 8 i 5 5 9 9 9 9 5 6 5 r.B j / B 8 8 T U 8 > # # 7 q q q 9 6 2 5 D D 5 g 5 , 4 8 U q 1 1 1 ",
"8 8 8 8 j T T T [ 9 ` 3 9 2 3 5 i 4 , 1 1 , < 8 E 6 > < 0 q q 9 8 6 4 9 E j 8 5 y 4 4 5 U 8 1 U U U ",
"4 4 5 q T r.7.D o.[ 5 w 3 + 2 5 5 , , 4 8 8 8 8 ^ 6 # < q q 7 7 4 > 5 T E 4 + 4 9 2 1 T ( 8 8 / 1 1 ",
". 6 9 E N 9 ..a.o.5 + + * w w 3 2 9 9 9 8 8 8 q 0 6 # 2 6 9 w w 9 i g j q q 7 6 7 6 6 9 8 8 5 U 8 < ",
"6 8 9 q 9 5 u ..| 5 3 O * e e 3 2 8 5 8 7 7 0 q < $ & & 3 3 7 3 z g 9 8 8 8 6 6 7 > 2 6 q E q 8 < < ",
"q q E 9 9 5 9 y ` 5 3 5 3 w w e E E E 9 6 < 6 6 < 6 6 6 3 7 3 3 9 9 8 4 6 6 q 0 7 $ . 2 q E E 8 < < ",
"q.9.:.q j i 5 i u 5 z 9 w w e w 9.^ W 9 7 6 0 1 7 7 7 7 w 9 w w 4 8 6 6 7 0 q q 6 ; @ & 9 q 9 6 8 8 ",
"q 9 q 8 q i 5 8 5 5 9 9 9 9 7 3 5 9 9 9 6 7 q q 8 q 7 9 6 5 9 9 2 2 6 6 6 0 0 0 6 7 ; ; 6 8 6 8 8 4 ",
"8 5 4 4 8 5 i 5 5 5 N j 9 9 5 3 2 8 8 2 2 2 6 6 6 7 6 2 & 2 2 2 2 2 6 : 6 6 ; ; 0 0 7 6 6 6 8 5 8 4 ",
"q 8 6 < > 4 5 T i T E T T 9 8 6 8 9 9 6 2 # > # < 2 6 6 2 > & 2 # & # & ; & : 7 ; 0 7 6 6 q q q g 5 ",
"W T 4 > > , i ^ 8 8 j j 8 8 2 2 2 6 5 8 5 8 5 9 6 6 5 7 6 2 O & # # # # $ : 0 0 ; 7 7 6 6 E e.T D D ",
"z./ 9 > > 4 8 6 ( q 6 8 q U 8 > 9 9 9 q e.q.N 9 > 8 9 T 9 6 4 6 6 ; : ; ; 0 7 0 6 0 7 6 q z.z./ D L ",
"z./ ( 8 8 q T q q 1 1 8 8 8 8 8 E 9 9 q :.7.z 9 5 E e.e.W 9 8 8 6 6 7 6 6 6 0 0 ; 7 7 7 T ^ 8.B D ) ",
"^ e.q q q q q q 7 8 q 8 < 4 i / 9.E 9 q E 7.9 9 9 9 / E T q 8 6 q 8 0 8 0 6 7 7 ; & 6 9 T r.8./ I L ",
"j 9 4 4 6 7 6 6 6 6 7 6 < 4 i ^ e.:.9 9 N N N 9 5 9 5 i q 8 8 8 9 0 0 6 6 7 6 ; 2 6 4 8 T ) ) H i i ",
"9 9 2 2 # & & < 7 6 6 6 4 q U ) e.q q :.N N N ` a.V z g q U U ( 8 8 7 7 6 # 6 2 9 9 j ) ) I I I i i ",
"q.9 2 & & # & : 7 7 6 7 q ( T E q q 9 9 9 N ` | x.a.D 5 8 8 8 T 8 9 8 6 2 & 6 8 E T T ) p.I H i B B ",
"8.9 3 3 2 * & : ; 7 6 7 q U j 8 8 7 3 5 9 N V | a.r.L i 4 < 1 1 6 4 8 6 > 2 8 q W E ) 8.I H y H / / ",
"` 9 3 7 : & & * = ; 6 9 8 5 4 5 2 2 6 4 9 9 z z L $.L j 8 1 6 q 6 6 6 > & > 8 E T 8 i B B t t y / / ",
"9 | 9 7 e * % - %   7 w 9 [ u u N 6 : 3 2 6 N j I ) ) 8 U > $ $ $ @ @ @ # 6 < 6 q 1 > > , < 1 > > 1 ",
"5 | 9 5 e * % - % X e r [ o.p V 9 3 7 7 7 7 N j ) ) c.t U # $ $ = @ = @ ; 6 6 < q 8 8 1 1 8 6 < 6 8 "
};
