/* XPM */
static char *Premium_PSD___3d_render_grape_icon_isolated_removebg_preview__2_1684854555[] = {
/* columns rows colors chars-per-pixel */
"50 50 180 2 ",
"   c None",
".  c #255C3C",
"X  c #26613E",
"o  c #2B643F",
"O  c #31703F",
"+  c #1B0C4B",
"@  c #1D054A",
"#  c #220F4B",
"$  c #23114D",
"%  c #271A46",
"&  c #230B52",
"*  c #2C0B5D",
"=  c #270A56",
"-  c #231253",
";  c #291453",
":  c #2D1C55",
">  c #241559",
",  c #2B155B",
"<  c #2C1B5D",
"1  c #321B5F",
"2  c #3C1F5D",
"3  c #2F245C",
"4  c #32225B",
"5  c #35265E",
"6  c #393958",
"7  c #2B0E61",
"8  c #350E6E",
"9  c #2C1662",
"0  c #2C1B63",
"q  c #2D156B",
"w  c #2E1C6B",
"e  c #271465",
"r  c #341767",
"t  c #3A1663",
"y  c #311A64",
"u  c #35146E",
"i  c #331A6B",
"p  c #3B196C",
"a  c #3C176A",
"s  c #3D0F73",
"d  c #371971",
"f  c #3A1A71",
"g  c #3A1474",
"h  c #2D2163",
"j  c #2F266B",
"k  c #302160",
"l  c #312471",
"z  c #342C79",
"x  c #332E72",
"c  c #37397F",
"v  c #491D6F",
"b  c #441975",
"n  c #491C76",
"m  c #43137D",
"M  c #441A7B",
"N  c #4A1A7C",
"B  c #43206C",
"V  c #47396F",
"C  c #4F237C",
"Z  c #562975",
"A  c #3E4E5E",
"S  c #38475B",
"D  c #3B5654",
"F  c #2D6342",
"G  c #2E6C43",
"H  c #326C43",
"J  c #33694A",
"K  c #396C4D",
"L  c #357343",
"P  c #397645",
"I  c #3A7A46",
"U  c #33724A",
"Y  c #397649",
"T  c #3C7C4A",
"R  c #357848",
"E  c #3A6952",
"W  c #3C6757",
"Q  c #3C7D54",
"!  c #407E52",
"~  c #457D5B",
"^  c #434967",
"/  c #4D4B72",
"(  c #514C79",
")  c #507C66",
"_  c #596673",
"`  c #3F834C",
"'  c #41824E",
"]  c #4A8A56",
"[  c #4D8C5B",
"{  c #498158",
"}  c #50895C",
"|  c #56925C",
" . c #4D8463",
".. c #518B6B",
"X. c #5B946E",
"o. c #5A8F74",
"O. c #63976D",
"+. c #649775",
"@. c #3B3582",
"#. c #4C1B83",
"$. c #481783",
"%. c #521D8B",
"&. c #541D8B",
"*. c #541C92",
"=. c #5A1D93",
"-. c #5E1F9B",
";. c #611E9D",
":. c #56208B",
">. c #5A2588",
",. c #5C2592",
"<. c #562294",
"1. c #642C8D",
"2. c #633486",
"3. c #622396",
"4. c #62219D",
"5. c #5D1CA1",
"6. c #641EA9",
"7. c #691FAD",
"8. c #6521A2",
"9. c #6923A4",
"0. c #6D24AB",
"q. c #6F29A8",
"w. c #7226AD",
"e. c #7329AD",
"r. c #7431A9",
"t. c #6E21B2",
"y. c #7425B4",
"u. c #7A27B7",
"i. c #762CB3",
"p. c #7A2CB5",
"a. c #7726B9",
"s. c #7A26BC",
"d. c #7D2ABC",
"f. c #7E34B4",
"g. c #6A5483",
"h. c #744493",
"j. c #7A41A0",
"k. c #812BBE",
"l. c #843BB5",
"z. c #8331BB",
"x. c #883ABB",
"c. c #83559F",
"v. c #8F46BB",
"b. c #944DBD",
"n. c #9866B1",
"m. c #A576BB",
"M. c #862CC4",
"N. c #8C32C5",
"B. c #8E31C9",
"V. c #8C38C5",
"C. c #923AC6",
"Z. c #9335CB",
"A. c #943BCA",
"S. c #9538CB",
"D. c #9F3ED3",
"F. c #A03FD2",
"G. c #9445C3",
"H. c #9947C7",
"J. c #9548C2",
"K. c #9644C8",
"L. c #9A45CA",
"P. c #9D4BCA",
"I. c #A24ECF",
"U. c #A245D3",
"Y. c #A54DD4",
"T. c #AB4ED7",
"R. c #AA4ED8",
"E. c #A952D4",
"W. c #AE54DA",
"Q. c #A650D3",
"!. c #AC6CCA",
"~. c #6A9B83",
"^. c #729C8B",
"/. c #7DA997",
"(. c #818697",
"). c #81AB8D",
"_. c #84AE9E",
"`. c #85B09B",
"'. c #B084BE",
"]. c #B88FC5",
/* pixels */
"                                                                                                    ",
"                                                                                                    ",
"                                                                                                    ",
"                                                                                                    ",
"                                                                                                    ",
"                                          ). .U                                                     ",
"                                        `./...R R                                                   ",
"                                          _.~.Q G +.+.                                              ",
"                                          _.). .G [ ] ' I I '                                       ",
"                                            _.o.{ ..` ` ' O O O I I                                 ",
"                                            _.^.O.] ' I I I ` O O P P                               ",
"                                              ^.O.] ' ` I P I P O O O O K                           ",
"                                            (.^.X.{ ! T Y P L L H H o o X o                         ",
"                              c.1.Z     h.Z g._ ) [ ! T U U H H H o o o . . F                       ",
"                          m.].n.1.1.n.'.c.&.v 2 6  .! K D A K F F F o o                             ",
"                        v.!.J.e.q.b.!.l.;.&.b 2 ; A ~ F V b / ! F F F . .                           ",
"                        C.Z.d.u.z.Z.k.u.9.&.N t , , A ^ ,.=.&.( E F F F .                           ",
"                      C.S.L.S.k.Z.U.K.z.0.=.#.b y * = ,.f.q.,.:./ E F F X                           ",
"                      A.F.W.Y.V.S.T.T.G.w.-.%.M l y * 3.b.x.4.&.n ^ W G F                           ",
"                      S.F.W.E.A.Z.T.E.K.y.<.%.M f r * ;.J.x.4.=.n t 6 W J                           ",
"                        S.R.Y.V.B.U.E.K.w.4.*.g a * * ;.J.x.4.=.N p y 5 S                           ",
"                        N.S.B.s.k.Z.C.k.0.4.%.g 8 * = =.p.w.4.=.N p y <                             ",
"                          M.k.a.t.d.k.u.0.-.%.$.8 & # s ;.7.4.&.n t y 4                             ",
"                            i.y.7.6.y.y.9.-.*.$.m s 8 8 s m #.n a 1 <                               ",
"                              i.s.s.a.7.6.t.t.6.;.%.$.g u 7 = & - - > 3                             ",
"                              B.B.M.s.t.y.M.M.u.6.=.#.b d q e + + - > > h                           ",
"                              Z.U.U.V.a.M.S.K.d.7.;.#.M d w w > + - < j 0                           ",
"                              S.R.R.L.M.Z.U.E.H.w.;.&.M d @.z e - - h c h                           ",
"                              Z.R.R.L.k.Z.R.Q.H.y.4.%.$.g @.z 0 $ - 0 x h                           ",
"                              B.U.Y.K.s.N.U.Q.P.e.4.%.M d i w e # ; , < h                           ",
"                              x.B.V.s.y.M.S.A.z.0.<.%.M p y 0 ; # ; , < 4                           ",
"                                z.d.a.t.0.k.k.u.0.4.#.b i 0 < $ ; , < 4                             ",
"                                  e.q.9.5.0.i.e.9.<.N p y < # # ; : :                               ",
"                                      ,.<.t.k.t.4.%.b t 9 e & % %                                   ",
"                                          N.A.N.u.*.$.u q q w                                       ",
"                                          A.R.I.d.8.*.M d c l                                       ",
"                                          S.E.I.z.8.*.#.f @.l                                       ",
"                                          S.Q.P.f.8.&.#.f i j                                       ",
"                                          N.S.k.y.6.&.M i y y                                       ",
"                                          f.f.u.0.,.#.b i y                                         ",
"                                            r.e.4.=.M v 1 4                                         ",
"                                                >.C B 5                                             ",
"                                                                                                    ",
"                                                                                                    ",
"                                                                                                    ",
"                                                                                                    ",
"                                                                                                    ",
"                                                                                                    ",
"                                                                                                    ",
"                                                                                                    "
};
