/* XPM */
static char *frame_0_delay_0_2s_removebg_preview__1_1684851490[] = {
/* columns rows colors chars-per-pixel */
"50 50 201 2 ",
"   c None",
".  c #201E23",
"X  c #0C292B",
"o  c #1F2124",
"O  c #1E3234",
"+  c #26262C",
"@  c #28272D",
"#  c #27292E",
"$  c #29282E",
"%  c #222125",
"&  c #2A2B32",
"*  c #2B2E3A",
"=  c #272A36",
"-  c #392633",
";  c #2C3136",
":  c #2C323B",
">  c #2D3A3C",
",  c #333439",
"<  c #303A3E",
"1  c #432336",
"2  c #54253F",
"3  c #2E3141",
"4  c #2E3843",
"5  c #333F42",
"6  c #3A3C44",
"7  c #5E2947",
"8  c #483849",
"9  c #64294A",
"0  c #6C2A4F",
"q  c #602545",
"w  c #70284E",
"e  c #6E2B50",
"r  c #733055",
"t  c #364648",
"y  c #3B4D52",
"u  c #324F51",
"i  c #2D5558",
"p  c #3D5253",
"a  c #385658",
"s  c #385658",
"d  c #2D5E62",
"f  c #2F656A",
"g  c #33666A",
"h  c #32696E",
"j  c #3D6A6B",
"k  c #346667",
"l  c #316D72",
"z  c #3F6E72",
"x  c #337176",
"c  c #35767B",
"v  c #3A767A",
"b  c #36797F",
"n  c #3C797D",
"m  c #3D7374",
"M  c #5C485A",
"N  c #445C5D",
"B  c #465658",
"V  c #515F5C",
"C  c #50605F",
"Z  c #6A635C",
"A  c #525F61",
"S  c #4A5F61",
"D  c #6B5469",
"F  c #456264",
"G  c #446D6D",
"H  c #496868",
"J  c #54676A",
"K  c #4E7371",
"L  c #447C7D",
"P  c #487C7C",
"I  c #427272",
"U  c #557C7A",
"Y  c #5A7C7C",
"T  c #557675",
"R  c #4C716E",
"E  c #656561",
"W  c #687779",
"Q  c #727778",
"!  c #726A64",
"~  c #56817F",
"^  c #8B827C",
"/  c #3B7E83",
"(  c #377B80",
")  c #447E81",
"_  c #797E85",
"`  c #3E8287",
"'  c #4B8484",
"]  c #4C8686",
"[  c #5A8583",
"{  c #528C8C",
"}  c #5A8987",
"|  c #5C918F",
" . c #4C8E91",
".. c #4F9295",
"X. c #5A9494",
"o. c #5B9D9D",
"O. c #579898",
"+. c #648583",
"@. c #6C8584",
"#. c #7C848A",
"$. c #758787",
"%. c #61928F",
"&. c #649692",
"*. c #6B9391",
"=. c #669996",
"-. c #669D9B",
";. c #699E9A",
":. c #7D9088",
">. c #5EA09F",
",. c #66A19F",
"<. c #6BA29E",
"1. c #7EA29C",
"2. c #63A4A3",
"3. c #6CA5A2",
"4. c #6FA9A5",
"5. c #6BACAA",
"6. c #71AAA6",
"7. c #72ADA9",
"8. c #79A4A4",
"9. c #6EB1AF",
"0. c #74B1AD",
"q. c #76B5B1",
"w. c #79B6B2",
"e. c #77B9B6",
"r. c #7ABAB6",
"t. c #7DBEB9",
"y. c #7FC1BD",
"u. c #848986",
"i. c #8F959C",
"p. c #869899",
"a. c #959B98",
"s. c #91918B",
"d. c #A59E9A",
"f. c #84A69F",
"g. c #A7A79B",
"h. c #BBA89E",
"j. c #989DA4",
"k. c #8B9DA1",
"l. c #87ABA6",
"z. c #93A5A6",
"x. c #81B1AE",
"c. c #9CADB2",
"v. c #8DBDBA",
"b. c #88B9B5",
"n. c #98B8B9",
"m. c #9AB1AA",
"M. c #A8ABA9",
"N. c #A6B5BA",
"B. c #B7BBB7",
"V. c #B3AEAA",
"C. c #C3B4AB",
"Z. c #CCB4A5",
"A. c #D6BCAE",
"S. c #CCBCB3",
"D. c #C7BEB8",
"F. c #80C2BE",
"G. c #A3C0BE",
"H. c #CAC5BE",
"J. c #D3C2B9",
"K. c #E1C7B8",
"L. c #A9BCC2",
"P. c #B4BCC5",
"I. c #83C5C1",
"U. c #8BC5C2",
"Y. c #90C8C5",
"T. c #9DCECB",
"R. c #9DC3C2",
"E. c #9DD1CE",
"W. c #AEC4C9",
"Q. c #A4C2C3",
"!. c #BAC3CB",
"~. c #B7C7CE",
"^. c #AFDBD9",
"/. c #B1DAD8",
"(. c #BCCCD3",
"). c #D5CCC5",
"_. c #D5C7C0",
"`. c #DED2C9",
"'. c #C1CAD3",
"]. c #C6CFD8",
"[. c #CBD5DE",
"{. c #C3D1D6",
"}. c #C9C8C9",
"|. c #E3D3C9",
" X c #E9D2C6",
".X c #EFDCD2",
"XX c #F2DFD4",
"oX c #E3CEC4",
"OX c #FEE9DE",
"+X c #FAE7DC",
"@X c #CDD6E0",
"#X c #D2DBE4",
"$X c #D4DEE9",
"%X c #DAE4EE",
"&X c #D7E1EB",
"*X c #DEE8F2",
"=X c #FEEBE0",
"-X c #F0E6E0",
";X c #FFF0E6",
":X c #E2EBF5",
">X c #E4EDF8",
/* pixels */
"                                                                                                    ",
"                                                                                                    ",
"                                  1 9                                                               ",
"                                o - 0       ;.3.3.3.'                                               ",
"                                ; - e y 7.r.t.F.y.y.e.e.7.    1 w                                   ",
"                                -.B w T I.I.y.y.y.y.y.y.F.t.[ - r                                   ",
"                              7.F.[ w J t.w.t.F.y.y.y.y.y.y.w.N w                                   ",
"                            =.t.F.[ 0 A 7.7.t.w.F.t.y.y.y.y.y.0.D 2                                 ",
"                            0.y.y.G 9 E 1.F.y.<.F.7.t.r.0.y.y.y.8.8                                 ",
"                            t.y.w.k 7 M G./.F.*.F.;.0.y.3.r.y.y.F.*.                                ",
"                          7.F.F.2.i 9 M y.E.n.s.Y.z.1.y.0.0.I.E.^.^.8.                              ",
"                          t.F.F.' 6 0 s y.y.g.A.b.m.g.r.y.<.Y.^.b.6.w.=.                            ",
"                        7.y.y.r.a e 1 U y.l.K.K.f.l.K.f.y.5.r.F.0.;.;.=.}                           ",
"                        t.y.F.3.8 w & 3.5.V ! ^ Q f.K.J.1.0.0.F.r.6.r.                              ",
"                      6.y.y.F.Y e - p 0.~ s X C d.a.|.h.Z T %.y.7.6.F.6.                            ",
"                      t.y.y.t.J q o H j n H X ~ +XK.oXB ; E :.r.} 4.F.r.                            ",
"                    6.y.y.t.w.    % 7 8 X.j d B.;X=XH.u y d.:.q.R =.y.y.4.                          ",
"                    t.F.e.5.6.      7 r <.M.).=X=X=XH.I k.D.[ 5.  P t.F.t.                          ",
"                  <.e.y.2.5.G.        % } B.=X=X+X=X+X`.|.p.P     g 9.y.t.7.                        ",
"                  6.0.e...5.{.          P _ S..X_.XX=XOXoXY i       O.y.5.r.                        ",
"                6.7.w.o...3.          V.^ W j.h.A.S.J.J.  [         / q.7.w.7.                      ",
"                r.4.5.` >.          C.OX_.i.N.a.u.a.V.              l O.r.4.t.&.                    ",
"              4.y.2.../ 3.          |.OX).!.z.+.Y u. X              f / 9.4.t.0.                    ",
"              r.t.{ b  .3.        @.).XX}.[.$.*.*._ _.V.              c O.4.w.y.;.                  ",
"            7.F.w.n ( o.          y @.M.#X*X!.8.c.'.M.J               x / 2.7.y.w.                  ",
"            Q.I.w.v ` 3.        : + 6 c.P.:X{.7.W.:Xi.@ =             l (  .3.y.F.3.                ",
"          w.I.E.v.v  .3.      * & + _ @X'.>XW.q.W.#XW @ &               c ( X.t.t.7.                ",
"        3.y.I.I.0.v 2.    * & & + , P.].[.@Xl.e.W.$X_ @ & &             x ( ' U.v.v.R.              ",
"      =.t.0.y.y.7.] 2.: & & $ $ & i.#X'.&XL.8.r.W.#Xu.@ @ & &           h b ) T.Y.w.v.-.            ",
"      w.y.4.t.y.w.X.U $ @ $ @ , j.*X'.&X&XP.Y 7.L.#Xi.& @ $ & *           c L r.t.3.y.0.            ",
"    4.y.y.&.w.y.r.&.  ; @ @ + B n.'.[.*X%XN.4 -.W.%X!.Q & @ @ &           l ' r.y.3.t.t.;.          ",
"    t.y.7.m 5.y.t.}   H ; @ & * y @.(.:X>XN.U q.L.:X%X!.Q & + +           f ' y.y.-.r.y.q.          ",
"  7.y.y.{ x ,.F.y.=.    K F & $ + ; T ~.*Xp.0.F.x.[.:X&Xk.5 > H             ] F.F.] -.y.t.          ",
"  r.F.w.n c { y.y.0.      %.< @ $ + $ J #., %.F.7.N.(.p.B 4 F u.            | F.b.' ' t.y.4.        ",
"  t.y.2.c c L r.I.r.      ;.[ N + + @ $ $ $ 5 ~ N t F < $ y F               7.F.w.n c 7.y.w.        ",
";.t.F.X.c ( x -.y.y.4.        ;.B ; $ + $ $ @ @ @ # $ $ N %.                r.F.,.c c X.F.t.        ",
";.F.F.{ c c l   r.F.w.          &.+.Y p H R 5 t t , N K ~                 <.y.t.] c b ] y.t.;.      ",
";.t.t.{ c b f   4.y.y.<.          E Y ~ K K [ Y [ R p t >                 w.y.3.v b b ) t.y.3.      ",
"  t.F.{ c c       q.F.0.            ; ; &         : # & &               <.F.w.I c b b L r.y.;.      ",
"  r.F.X.c c       =.t.y.;.          & & &         = & & #               r.w.    c b b L t.t.        ",
"  0.F.,.c b         6.F.0.        : & $ 3           = $ *             =.t.=.    c b c ] F.w.        ",
"  <.y.0.v b           r.r.        * $ $ 3           * @ *             <.0.      c ( c -.F.3.        ",
"    w.t.' c h         =.t.=.      * $ $ 3           & $ $ :           4.<.    h ( ( ) w.w.          ",
"    =.y.,.c l           0.<.      & $ $ *           + $ @ *           ;.      l ( ( 5.r.=.          ",
"      <.r.2.b           3.4.        $ @ * 3           & @ ; : o       %.      x ( o.r.;.            ",
"        ;.w.o.h           <.        & @ @ &           * @ @ & 6 >           g / o.0.                ",
"            4.O.          &.        & $ & & +         * & t G P G           ) O.-.                  ",
"              &.P                   * $ $ $ ;           : j v b h         h                         ",
"                                      < t s R           a g d d                                     ",
"                                        T                 d                                         "
};
