/* XPM */
static char *Design_sans_titre__1_1684852190[] = {
/* columns rows colors chars-per-pixel */
"50 50 93 2 ",
"   c #0F0D12",
".  c #110E12",
"X  c #131116",
"o  c #15151B",
"O  c #19161C",
"+  c #19191F",
"@  c #1C1C23",
"#  c #1E1F28",
"$  c #221D25",
"%  c #2B1E27",
"&  c #1D2027",
"*  c #222027",
"=  c #24232C",
"-  c #2B242D",
";  c #2E2A2E",
":  c #32232B",
">  c #3A242D",
",  c #252631",
"<  c #2F2530",
"1  c #272934",
"2  c #2B2A34",
"3  c #2C2E3A",
"4  c #352A33",
"5  c #302E39",
"6  c #3D2E3A",
"7  c #2E313E",
"8  c #313136",
"9  c #3E3036",
"0  c #34333C",
"q  c #412F3A",
"w  c #45323D",
"e  c #2F3442",
"r  c #333543",
"t  c #383644",
"y  c #333847",
"u  c #393840",
"i  c #353949",
"p  c #3B3D4D",
"a  c #3A3F51",
"s  c #453642",
"d  c #4D3741",
"f  c #433946",
"g  c #4B3843",
"h  c #433C4C",
"j  c #4B3D4B",
"k  c #553A44",
"l  c #5B3E47",
"z  c #573E48",
"x  c #3D4152",
"c  c #4F404C",
"v  c #54424E",
"b  c #424354",
"n  c #4B4656",
"m  c #434659",
"M  c #44495C",
"N  c #4E495B",
"B  c #514250",
"V  c #534C5D",
"C  c #674348",
"Z  c #464E62",
"A  c #4A4E62",
"S  c #4C5266",
"D  c #4D5469",
"F  c #51566A",
"G  c #53596E",
"H  c #545C72",
"J  c #67666A",
"K  c #6C6B6F",
"L  c #6E6C71",
"P  c #706F73",
"I  c #79777C",
"U  c #7B787D",
"Y  c #7F7B80",
"T  c #847C82",
"R  c #897D82",
"E  c #89878B",
"W  c #91848A",
"Q  c #98888D",
"!  c #9C8C92",
"~  c #969597",
"^  c #979799",
"/  c #989799",
"(  c #9B9A9D",
")  c #A28F93",
"_  c #A59196",
"`  c #AA9194",
"'  c #9D9DA0",
"]  c #A6A4A6",
"[  c #BDBCBE",
"{  c #E2E1E2",
"}  c #EEEEEE",
"|  c gray95",
" . c #FFFFFF",
/* pixels */
" . . . . . . . . . . . . . . . . . . . . . . . . . . . . . . . . . . . . . . . . . . . . . . . . . .",
" . . . . . . . . . . . . . . . . . . . . . . . . . . . . . . . . . . . . . . . . . . . . . . . . . .",
" . . . . . . . . . . . . . . . . . . . . . . . . . . . . . . . . . . . . . . . . . . . . . . . . . .",
" . . . . . . . . . . . . . . . . . . . . . . . . . . . . . . . . . . . . . . . . . . . . . . . . . .",
" . . . . . . . . . . . . . . . . . . . . . . . . . . . . . . . . . . . . . . . . . . . . . . . . . .",
" . . . . . . . . . . . . . . . . . . . . . . . . . . . . . . . . . . . . . . . . . . . . . . . . . .",
" . . . . . . . . . . . . . . . . . . . . . . . . . . . . . . . . . . . . . . . . . . . . . . . . . .",
" . . . . . . . . . . . . . . . . . . . . . . . . . . . . . . . . . . . . . . . . . . . . . . . . . .",
" . . . . . . . . . . . . . . . . . . . . . . . . . . . . . . . . . . . . . . . . . . . . . . . . . .",
" . . . . . . . . . . . . . . . . . . . . . . . . . . . . . . . . . . . . . . . . . . . . . . . . . .",
" . . . . . . . . . . . . . . . . . . . . . . . . . . . . . . . . . . . . . . . . . . . . . . . . . .",
" . . . . . . . . . . . . . . . . . . . . . . . . . . . . . . . . . . . . . . . . . . . . . . . . . .",
" . . . . . . . . . . . . . . . . . . . . . . . . . . . . . . . . . . . . . . . . . . . . . . . . . .",
" . . . . . . . . . . . . . . . . . . . . . . . . . . . . . . . . . . . . . . . . . . . . . . . . . .",
" . . . . . . . . . . . . . . . . . . . . . . . . . . . . . . . . . . . . . . . . . . . . . . . . . .",
" . . . . . . . . . . . . . . . . . . . . . . . . . . . . . . . . . . . . . . . . . . . . . . . . . .",
" . . . . . . . . . . . . . . . . . . . . . . . . . . . . . . . . . . . . . . . . . . . . . . . . . .",
" . . . . . . . . . . . . . . . . . . . . . . . . . . . . . . . . . . . . . . . . . . . . . . . . . .",
" . . . . . . . . . . . . . . . . . . . . . . . . . . . . . . . . . . . . . . . . . . . . . . . . . .",
" . . . . . . . . . . . . . . . . . . . . . . . . . . . . . . . . . . . . . . . . . . . . . . . . . .",
" . . . . . . . . . . .] I U T T R R R W ! ! ! _ ` ` ` ) ) ) Q W R R R R T Y U E }  . . . . . . . . .",
" . . . . . . . . . . .P O $ % : > > 6 w w g z z l C l k k w w q q 4 2 < - = @ 0 {  . . . . . . . . .",
" . . . . . . . . . . .P $ - - 4 6 6 d j h j j B v v v v c j s f s 6 5 2 = = = u {  . . . . . . . . .",
" . . . . . . . . . . .P @ - 2 3 0 t p h n N V V V V V V n n b h p y 5 3 3 , & 0 {  . . . . . . . . .",
" . . . . . . . . . . .P @ = 2 3 r y a m b A F G H G G F F S m x p y e 3 1 , @ 0 {  . . . . . . . . .",
" . . . . . . . . . . .L @ - 4 2 3 r p a M S F H H H H H F S Z x i y 7 1 2 = @ 0 {  . . . . . . . . .",
" . . . . . . . . . . .L + * = , 3 e y p m A D F H H G D D D x x y e 2 = & # @ 8 {  . . . . . . . . .",
" . . . . . . . . . . .K o + @ = 1 3 0 p p m N A F S F S Z x x i e 7 1 = & @ o 8 {  . . . . . . . . .",
" . . . . . . . . . . .K X O + * : < 2 3 u p p b b p x x x x y 7 1 1 - * @ + o 8 {  . . . . . . . . .",
" . . . . . . . . . . .L o O + + $ $ = 2 3 8 0 5 3 8 7 7 e e 3 1 = = * @ o + O 8 {  . . . . . . . . .",
" . . . . . . . . . . .K X + O O O $ * * = 2 2 , 2 9 2 , , 1 , & & & @ X X + o 8 {  . . . . . . . . .",
" . . . . . . . . . . .J   o X X   O + @ @ & * * * * & & & & @ & @ + X   X X . ; {  . . . . . . . . .",
" . . . . . . . . . . .[ ~ / ( ( / ( ( ( ' ( ' ' ' ( ' ' ( ' ' ' ( ( ^ ^ ^ / ( ] |  . . . . . . . . .",
" . . . . . . . . . . . . . . . . . . . . . . . . . . . . . . . . . . . . . . . . . . . . . . . . . .",
" . . . . . . . . . . . . . . . . . . . . . . . . . . . . . . . . . . . . . . . . . . . . . . . . . .",
" . . . . . . . . . . . . . . . . . . . . . . . . . . . . . . . . . . . . . . . . . . . . . . . . . .",
" . . . . . . . . . . . . . . . . . . . . . . . . . . . . . . . . . . . . . . . . . . . . . . . . . .",
" . . . . . . . . . . . . . . . . . . . . . . . . . . . . . . . . . . . . . . . . . . . . . . . . . .",
" . . . . . . . . . . . . . . . . . . . . . . . . . . . . . . . . . . . . . . . . . . . . . . . . . .",
" . . . . . . . . . . . . . . . . . . . . . . . . . . . . . . . . . . . . . . . . . . . . . . . . . .",
" . . . . . . . . . . . . . . . . . . . . . . . . . . . . . . . . . . . . . . . . . . . . . . . . . .",
" . . . . . . . . . . . . . . . . . . . . . . . . . . . . . . . . . . . . . . . . . . . . . . . . . .",
" . . . . . . . . . . . . . . . . . . . . . . . . . . . . . . . . . . . . . . . . . . . . . . . . . .",
" . . . . . . . . . . . . . . . . . . . . . . . . . . . . . . . . . . . . . . . . . . . . . . . . . .",
" . . . . . . . . . . . . . . . . . . . . . . . . . . . . . . . . . . . . . . . . . . . . . . . . . .",
" . . . . . . . . . . . . . . . . . . . . . . . . . . . . . . . . . . . . . . . . . . . . . . . . . .",
" . . . . . . . . . . . . . . . . . . . . . . . . . . . . . . . . . . . . . . . . . . . . . . . . . .",
" . . . . . . . . . . . . . . . . . . . . . . . . . . . . . . . . . . . . . . . . . . . . . . . . . .",
" . . . . . . . . . . . . . . . . . . . . . . . . . . . . . . . . . . . . . . . . . . . . . . . . . .",
" . . . . . . . . . . . . . . . . . . . . . . . . . . . . . . . . . . . . . . . . . . . . . . . . . ."
};
